<mxfile host="Electron" agent="Mozilla/5.0 (Windows NT 10.0; Win64; x64) AppleWebKit/537.36 (KHTML, like Gecko) draw.io/26.2.15 Chrome/134.0.6998.205 Electron/35.2.1 Safari/537.36" version="26.2.15" pages="6">
  <diagram name="CardDescriptions" id="M29z1TPLIgUZ7N1vZbDt">
    <mxGraphModel dx="4074" dy="2426" grid="1" gridSize="10" guides="1" tooltips="1" connect="1" arrows="1" fold="1" page="1" pageScale="1" pageWidth="850" pageHeight="1100" math="0" shadow="0">
      <root>
        <mxCell id="0" />
        <mxCell id="1" parent="0" />
        <mxCell id="3aNG4CSsGHU_DnrI1Hew-7" value="Card" style="swimlane;childLayout=stackLayout;horizontal=1;startSize=50;horizontalStack=0;rounded=1;fontSize=14;fontStyle=0;strokeWidth=2;resizeParent=0;resizeLast=1;shadow=0;dashed=0;align=center;arcSize=4;whiteSpace=wrap;html=1;" parent="1" vertex="1">
          <mxGeometry x="1085" y="50" width="160" height="120" as="geometry">
            <mxRectangle x="415" y="20" width="70" height="50" as="alternateBounds" />
          </mxGeometry>
        </mxCell>
        <mxCell id="3aNG4CSsGHU_DnrI1Hew-8" value="-Card Number&lt;div&gt;+Card Name&lt;br&gt;+Card Points&lt;/div&gt;" style="align=left;strokeColor=none;fillColor=none;spacingLeft=4;spacingRight=4;fontSize=12;verticalAlign=top;resizable=0;rotatable=0;part=1;html=1;whiteSpace=wrap;" parent="3aNG4CSsGHU_DnrI1Hew-7" vertex="1">
          <mxGeometry y="50" width="160" height="70" as="geometry" />
        </mxCell>
        <mxCell id="3aNG4CSsGHU_DnrI1Hew-9" value="Out of Gas 3x" style="swimlane;childLayout=stackLayout;horizontal=1;startSize=50;horizontalStack=0;rounded=1;fontSize=14;fontStyle=0;strokeWidth=2;resizeParent=0;resizeLast=1;shadow=0;dashed=0;align=center;arcSize=4;whiteSpace=wrap;html=1;" parent="1" vertex="1">
          <mxGeometry x="710" y="240" width="160" height="280" as="geometry" />
        </mxCell>
        <mxCell id="3aNG4CSsGHU_DnrI1Hew-10" value="-1-3&lt;div&gt;+OutOfGas&lt;br&gt;+Card Points = 0&lt;/div&gt;&lt;div&gt;&lt;br&gt;&lt;/div&gt;&lt;div&gt;&lt;div&gt;An OUT OF GAS CARD is played onto your opponents’ Roll Card. They cannot play further Distance Cards until they have first played a&lt;/div&gt;&lt;div&gt;GASOLINE CARD and then a ROLL! Card on subsequent turns.&lt;/div&gt;&lt;/div&gt;" style="align=left;strokeColor=none;fillColor=none;spacingLeft=4;spacingRight=4;fontSize=12;verticalAlign=top;resizable=0;rotatable=0;part=1;html=1;whiteSpace=wrap;" parent="3aNG4CSsGHU_DnrI1Hew-9" vertex="1">
          <mxGeometry y="50" width="160" height="230" as="geometry" />
        </mxCell>
        <mxCell id="3aNG4CSsGHU_DnrI1Hew-11" value="Flat Tire 3x" style="swimlane;childLayout=stackLayout;horizontal=1;startSize=50;horizontalStack=0;rounded=1;fontSize=14;fontStyle=0;strokeWidth=2;resizeParent=0;resizeLast=1;shadow=0;dashed=0;align=center;arcSize=4;whiteSpace=wrap;html=1;" parent="1" vertex="1">
          <mxGeometry x="900" y="240" width="160" height="280" as="geometry" />
        </mxCell>
        <mxCell id="3aNG4CSsGHU_DnrI1Hew-12" value="-4-6&lt;div&gt;+FlatTire&lt;br&gt;+Card Points = 0&lt;/div&gt;&lt;div&gt;&lt;br&gt;&lt;/div&gt;&lt;div&gt;&lt;div&gt;A FLAT TIRE CARD is played onto your opponents’ ROLL! Card. They cannot play further Distance Cards until they have first played&lt;/div&gt;&lt;div&gt;a SPARE TIRE Card and then a ROLL! Card on subsequent turns.&lt;/div&gt;&lt;/div&gt;" style="align=left;strokeColor=none;fillColor=none;spacingLeft=4;spacingRight=4;fontSize=12;verticalAlign=top;resizable=0;rotatable=0;part=1;html=1;whiteSpace=wrap;" parent="3aNG4CSsGHU_DnrI1Hew-11" vertex="1">
          <mxGeometry y="50" width="160" height="230" as="geometry" />
        </mxCell>
        <mxCell id="3aNG4CSsGHU_DnrI1Hew-13" style="edgeStyle=orthogonalEdgeStyle;rounded=0;orthogonalLoop=1;jettySize=auto;html=1;" parent="1" source="3aNG4CSsGHU_DnrI1Hew-8" target="3aNG4CSsGHU_DnrI1Hew-9" edge="1">
          <mxGeometry relative="1" as="geometry" />
        </mxCell>
        <mxCell id="3aNG4CSsGHU_DnrI1Hew-14" style="edgeStyle=orthogonalEdgeStyle;rounded=0;orthogonalLoop=1;jettySize=auto;html=1;" parent="1" source="3aNG4CSsGHU_DnrI1Hew-8" target="3aNG4CSsGHU_DnrI1Hew-11" edge="1">
          <mxGeometry relative="1" as="geometry" />
        </mxCell>
        <mxCell id="3aNG4CSsGHU_DnrI1Hew-15" value="Accident 3x" style="swimlane;childLayout=stackLayout;horizontal=1;startSize=50;horizontalStack=0;rounded=1;fontSize=14;fontStyle=0;strokeWidth=2;resizeParent=0;resizeLast=1;shadow=0;dashed=0;align=center;arcSize=4;whiteSpace=wrap;html=1;" parent="1" vertex="1">
          <mxGeometry x="1090" y="240" width="150" height="280" as="geometry" />
        </mxCell>
        <mxCell id="3aNG4CSsGHU_DnrI1Hew-16" value="-7-9&lt;div&gt;+Accident&lt;br&gt;+Card Points = 0&lt;/div&gt;&lt;div&gt;&lt;br&gt;&lt;/div&gt;&lt;div&gt;&lt;div&gt;An ACCIDENT CARD is played onto your opponents’ ROLL! Card. They cannot play further Distance Cards until they have played a&lt;/div&gt;&lt;div&gt;REPAIR Card and then a ROLL! Card on subsequent turns.&lt;/div&gt;&lt;/div&gt;" style="align=left;strokeColor=none;fillColor=none;spacingLeft=4;spacingRight=4;fontSize=12;verticalAlign=top;resizable=0;rotatable=0;part=1;html=1;whiteSpace=wrap;" parent="3aNG4CSsGHU_DnrI1Hew-15" vertex="1">
          <mxGeometry y="50" width="150" height="230" as="geometry" />
        </mxCell>
        <mxCell id="3aNG4CSsGHU_DnrI1Hew-17" value="Speed Limit 4x" style="swimlane;childLayout=stackLayout;horizontal=1;startSize=50;horizontalStack=0;rounded=1;fontSize=14;fontStyle=0;strokeWidth=2;resizeParent=0;resizeLast=1;shadow=0;dashed=0;align=center;arcSize=4;whiteSpace=wrap;html=1;" parent="1" vertex="1">
          <mxGeometry x="1280" y="240" width="150" height="280" as="geometry" />
        </mxCell>
        <mxCell id="3aNG4CSsGHU_DnrI1Hew-18" value="-10-13&lt;div&gt;+SpeedLimit&lt;br&gt;+Card Points = 0&lt;/div&gt;&lt;div&gt;&lt;br&gt;&lt;/div&gt;&lt;div&gt;&lt;div&gt;A SPEED LIMIT CARD is played onto your opponents’ Speed&lt;/div&gt;&lt;div&gt;Pile alongside their Battle Pile. While it is exposed, your&amp;nbsp;&lt;span style=&quot;background-color: transparent; color: light-dark(rgb(0, 0, 0), rgb(255, 255, 255));&quot;&gt;opponents can only play 25 mile or 50 mile cards. As long&amp;nbsp;&lt;/span&gt;&lt;span style=&quot;background-color: transparent; color: light-dark(rgb(0, 0, 0), rgb(255, 255, 255));&quot;&gt;as no cards are on your Speed Pile, you are not subject to&amp;nbsp;&lt;/span&gt;&lt;span style=&quot;background-color: transparent; color: light-dark(rgb(0, 0, 0), rgb(255, 255, 255));&quot;&gt;any speed limit.&lt;/span&gt;&lt;/div&gt;&lt;/div&gt;" style="align=left;strokeColor=none;fillColor=none;spacingLeft=4;spacingRight=4;fontSize=12;verticalAlign=top;resizable=0;rotatable=0;part=1;html=1;whiteSpace=wrap;" parent="3aNG4CSsGHU_DnrI1Hew-17" vertex="1">
          <mxGeometry y="50" width="150" height="230" as="geometry" />
        </mxCell>
        <mxCell id="3aNG4CSsGHU_DnrI1Hew-21" style="edgeStyle=orthogonalEdgeStyle;rounded=0;orthogonalLoop=1;jettySize=auto;html=1;" parent="1" source="3aNG4CSsGHU_DnrI1Hew-8" target="3aNG4CSsGHU_DnrI1Hew-15" edge="1">
          <mxGeometry relative="1" as="geometry" />
        </mxCell>
        <mxCell id="3aNG4CSsGHU_DnrI1Hew-22" style="edgeStyle=orthogonalEdgeStyle;rounded=0;orthogonalLoop=1;jettySize=auto;html=1;" parent="1" source="3aNG4CSsGHU_DnrI1Hew-8" target="3aNG4CSsGHU_DnrI1Hew-17" edge="1">
          <mxGeometry relative="1" as="geometry" />
        </mxCell>
        <mxCell id="3aNG4CSsGHU_DnrI1Hew-23" value="Stop 5x" style="swimlane;childLayout=stackLayout;horizontal=1;startSize=50;horizontalStack=0;rounded=1;fontSize=14;fontStyle=0;strokeWidth=2;resizeParent=0;resizeLast=1;shadow=0;dashed=0;align=center;arcSize=4;whiteSpace=wrap;html=1;" parent="1" vertex="1">
          <mxGeometry x="1470" y="240" width="160" height="280" as="geometry" />
        </mxCell>
        <mxCell id="3aNG4CSsGHU_DnrI1Hew-24" value="-14-18&lt;div&gt;+Stop&lt;br&gt;+Card Points = 0&lt;/div&gt;&lt;div&gt;&lt;br&gt;&lt;/div&gt;&lt;div&gt;&lt;div&gt;A STOP! CARD (Red Light) is played only onto your opponents’&lt;/div&gt;&lt;div&gt;ROLL! Card, to prevent them from playing further Distance Cards&lt;/div&gt;&lt;div&gt;until they can cover it with another ROLL! Card on a subsequent turn.&lt;/div&gt;&lt;/div&gt;" style="align=left;strokeColor=none;fillColor=none;spacingLeft=4;spacingRight=4;fontSize=12;verticalAlign=top;resizable=0;rotatable=0;part=1;html=1;whiteSpace=wrap;" parent="3aNG4CSsGHU_DnrI1Hew-23" vertex="1">
          <mxGeometry y="50" width="160" height="230" as="geometry" />
        </mxCell>
        <mxCell id="3aNG4CSsGHU_DnrI1Hew-25" style="edgeStyle=orthogonalEdgeStyle;rounded=0;orthogonalLoop=1;jettySize=auto;html=1;" parent="1" source="3aNG4CSsGHU_DnrI1Hew-8" target="3aNG4CSsGHU_DnrI1Hew-23" edge="1">
          <mxGeometry relative="1" as="geometry" />
        </mxCell>
        <mxCell id="3aNG4CSsGHU_DnrI1Hew-31" value="Gas 6x" style="swimlane;childLayout=stackLayout;horizontal=1;startSize=50;horizontalStack=0;rounded=1;fontSize=14;fontStyle=0;strokeWidth=2;resizeParent=0;resizeLast=1;shadow=0;dashed=0;align=center;arcSize=4;whiteSpace=wrap;html=1;" parent="1" vertex="1">
          <mxGeometry x="710" y="600" width="160" height="280" as="geometry" />
        </mxCell>
        <mxCell id="3aNG4CSsGHU_DnrI1Hew-32" value="-19-24&lt;br&gt;+Gas&lt;br&gt;+Card Points = 100&lt;div&gt;&lt;br&gt;&lt;/div&gt;&lt;div&gt;Played to remedy OUT OF GAS CARD.&lt;/div&gt;" style="align=left;strokeColor=none;fillColor=none;spacingLeft=4;spacingRight=4;fontSize=12;verticalAlign=top;resizable=0;rotatable=0;part=1;html=1;whiteSpace=wrap;" parent="3aNG4CSsGHU_DnrI1Hew-31" vertex="1">
          <mxGeometry y="50" width="160" height="230" as="geometry" />
        </mxCell>
        <mxCell id="3aNG4CSsGHU_DnrI1Hew-33" value="Spare Tire 6x" style="swimlane;childLayout=stackLayout;horizontal=1;startSize=50;horizontalStack=0;rounded=1;fontSize=14;fontStyle=0;strokeWidth=2;resizeParent=0;resizeLast=1;shadow=0;dashed=0;align=center;arcSize=4;whiteSpace=wrap;html=1;" parent="1" vertex="1">
          <mxGeometry x="900" y="600" width="160" height="280" as="geometry" />
        </mxCell>
        <mxCell id="3aNG4CSsGHU_DnrI1Hew-34" value="-25-30&lt;br&gt;+SpareTire&lt;span style=&quot;color: rgba(0, 0, 0, 0); font-family: monospace; font-size: 0px; text-wrap-mode: nowrap;&quot;&gt;%3CmxGraphModel%3E%3Croot%3E%3CmxCell%20id%3D%220%22%2F%3E%3CmxCell%20id%3D%221%22%20parent%3D%220%22%2F%3E%3CmxCell%20id%3D%222%22%20value%3D%22Gas%206x%22%20style%3D%22swimlane%3BchildLayout%3DstackLayout%3Bhorizontal%3D1%3BstartSize%3D50%3BhorizontalStack%3D0%3Brounded%3D1%3BfontSize%3D14%3BfontStyle%3D0%3BstrokeWidth%3D2%3BresizeParent%3D0%3BresizeLast%3D1%3Bshadow%3D0%3Bdashed%3D0%3Balign%3Dcenter%3BarcSize%3D4%3BwhiteSpace%3Dwrap%3Bhtml%3D1%3B%22%20vertex%3D%221%22%20parent%3D%221%22%3E%3CmxGeometry%20x%3D%2240%22%20y%3D%22720%22%20width%3D%22160%22%20height%3D%22280%22%20as%3D%22geometry%22%2F%3E%3C%2FmxCell%3E%3CmxCell%20id%3D%223%22%20value%3D%22-19-24%26lt%3Bbr%26gt%3B%2BGas%26lt%3Bbr%26gt%3B%2BCard%20Points%20%3D%20100%26amp%3Bnbsp%3B%22%20style%3D%22align%3Dleft%3BstrokeColor%3Dnone%3BfillColor%3Dnone%3BspacingLeft%3D4%3BspacingRight%3D4%3BfontSize%3D12%3BverticalAlign%3Dtop%3Bresizable%3D0%3Brotatable%3D0%3Bpart%3D1%3Bhtml%3D1%3BwhiteSpace%3Dwrap%3B%22%20vertex%3D%221%22%20parent%3D%222%22%3E%3CmxGeometry%20y%3D%2250%22%20width%3D%22160%22%20height%3D%22230%22%20as%3D%22geometry%22%2F%3E%3C%2FmxCell%3E%3C%2Froot%3E%3C%2FmxGraphModel%3E&lt;/span&gt;&lt;br&gt;+Card Points = 100&lt;div&gt;&lt;br&gt;&lt;/div&gt;&lt;div&gt;&lt;span style=&quot;background-color: transparent; color: light-dark(rgb(0, 0, 0), rgb(255, 255, 255));&quot;&gt;Played to remedy FLAT TIRE CARD.&lt;/span&gt;&amp;nbsp;&lt;/div&gt;" style="align=left;strokeColor=none;fillColor=none;spacingLeft=4;spacingRight=4;fontSize=12;verticalAlign=top;resizable=0;rotatable=0;part=1;html=1;whiteSpace=wrap;" parent="3aNG4CSsGHU_DnrI1Hew-33" vertex="1">
          <mxGeometry y="50" width="160" height="230" as="geometry" />
        </mxCell>
        <mxCell id="3aNG4CSsGHU_DnrI1Hew-35" value="Repairs 6x" style="swimlane;childLayout=stackLayout;horizontal=1;startSize=50;horizontalStack=0;rounded=1;fontSize=14;fontStyle=0;strokeWidth=2;resizeParent=0;resizeLast=1;shadow=0;dashed=0;align=center;arcSize=4;whiteSpace=wrap;html=1;" parent="1" vertex="1">
          <mxGeometry x="1085" y="600" width="160" height="280" as="geometry" />
        </mxCell>
        <mxCell id="3aNG4CSsGHU_DnrI1Hew-36" value="-30-36&lt;br&gt;+Repairs&lt;br&gt;+Card Points = 100&lt;div&gt;&lt;br&gt;&lt;/div&gt;&lt;div&gt;&lt;span style=&quot;background-color: transparent; color: light-dark(rgb(0, 0, 0), rgb(255, 255, 255));&quot;&gt;Played to remedy ACCIDENT CARD.&lt;/span&gt;&amp;nbsp;&lt;/div&gt;" style="align=left;strokeColor=none;fillColor=none;spacingLeft=4;spacingRight=4;fontSize=12;verticalAlign=top;resizable=0;rotatable=0;part=1;html=1;whiteSpace=wrap;" parent="3aNG4CSsGHU_DnrI1Hew-35" vertex="1">
          <mxGeometry y="50" width="160" height="230" as="geometry" />
        </mxCell>
        <mxCell id="3aNG4CSsGHU_DnrI1Hew-37" value="End of Limit 6x" style="swimlane;childLayout=stackLayout;horizontal=1;startSize=50;horizontalStack=0;rounded=1;fontSize=14;fontStyle=0;strokeWidth=2;resizeParent=0;resizeLast=1;shadow=0;dashed=0;align=center;arcSize=4;whiteSpace=wrap;html=1;" parent="1" vertex="1">
          <mxGeometry x="1275" y="600" width="160" height="280" as="geometry" />
        </mxCell>
        <mxCell id="3aNG4CSsGHU_DnrI1Hew-38" value="-37-42&lt;br&gt;+EndOfLimit&lt;br&gt;+Card Points = 100&lt;div&gt;&lt;br&gt;&lt;/div&gt;&lt;div&gt;&lt;span style=&quot;background-color: transparent; color: light-dark(rgb(0, 0, 0), rgb(255, 255, 255));&quot;&gt;Played to remedy SPEED LIMIT CARD.&lt;/span&gt;&amp;nbsp;&lt;/div&gt;" style="align=left;strokeColor=none;fillColor=none;spacingLeft=4;spacingRight=4;fontSize=12;verticalAlign=top;resizable=0;rotatable=0;part=1;html=1;whiteSpace=wrap;" parent="3aNG4CSsGHU_DnrI1Hew-37" vertex="1">
          <mxGeometry y="50" width="160" height="230" as="geometry" />
        </mxCell>
        <mxCell id="3aNG4CSsGHU_DnrI1Hew-39" value="Roll! (Go) 14x" style="swimlane;childLayout=stackLayout;horizontal=1;startSize=50;horizontalStack=0;rounded=1;fontSize=14;fontStyle=0;strokeWidth=2;resizeParent=0;resizeLast=1;shadow=0;dashed=0;align=center;arcSize=4;whiteSpace=wrap;html=1;" parent="1" vertex="1">
          <mxGeometry x="1470" y="600" width="160" height="200" as="geometry" />
        </mxCell>
        <mxCell id="3aNG4CSsGHU_DnrI1Hew-40" value="-43-56&lt;br&gt;+Roll&lt;br&gt;+Card Points = 100&lt;div&gt;&lt;br&gt;&lt;/div&gt;&lt;div&gt;A ROLL! CARD (Green Light) must be displayed on your Battle Pile&lt;/div&gt;&lt;div&gt;&lt;span style=&quot;background-color: transparent;&quot;&gt;before your team can play any Distance Cards.&lt;/span&gt;&amp;nbsp;&lt;/div&gt;" style="align=left;strokeColor=none;fillColor=none;spacingLeft=4;spacingRight=4;fontSize=12;verticalAlign=top;resizable=0;rotatable=0;part=1;html=1;whiteSpace=wrap;" parent="3aNG4CSsGHU_DnrI1Hew-39" vertex="1">
          <mxGeometry y="50" width="160" height="150" as="geometry" />
        </mxCell>
        <mxCell id="3aNG4CSsGHU_DnrI1Hew-41" style="edgeStyle=orthogonalEdgeStyle;rounded=0;orthogonalLoop=1;jettySize=auto;html=1;" parent="1" source="3aNG4CSsGHU_DnrI1Hew-16" target="3aNG4CSsGHU_DnrI1Hew-35" edge="1">
          <mxGeometry relative="1" as="geometry" />
        </mxCell>
        <mxCell id="3aNG4CSsGHU_DnrI1Hew-42" style="edgeStyle=orthogonalEdgeStyle;rounded=0;orthogonalLoop=1;jettySize=auto;html=1;" parent="1" source="3aNG4CSsGHU_DnrI1Hew-18" target="3aNG4CSsGHU_DnrI1Hew-37" edge="1">
          <mxGeometry relative="1" as="geometry" />
        </mxCell>
        <mxCell id="3aNG4CSsGHU_DnrI1Hew-43" style="edgeStyle=orthogonalEdgeStyle;rounded=0;orthogonalLoop=1;jettySize=auto;html=1;" parent="1" source="3aNG4CSsGHU_DnrI1Hew-24" target="3aNG4CSsGHU_DnrI1Hew-39" edge="1">
          <mxGeometry relative="1" as="geometry" />
        </mxCell>
        <mxCell id="3aNG4CSsGHU_DnrI1Hew-44" style="edgeStyle=orthogonalEdgeStyle;rounded=0;orthogonalLoop=1;jettySize=auto;html=1;" parent="1" source="3aNG4CSsGHU_DnrI1Hew-12" target="3aNG4CSsGHU_DnrI1Hew-33" edge="1">
          <mxGeometry relative="1" as="geometry" />
        </mxCell>
        <mxCell id="3aNG4CSsGHU_DnrI1Hew-45" style="edgeStyle=orthogonalEdgeStyle;rounded=0;orthogonalLoop=1;jettySize=auto;html=1;" parent="1" source="3aNG4CSsGHU_DnrI1Hew-10" target="3aNG4CSsGHU_DnrI1Hew-31" edge="1">
          <mxGeometry relative="1" as="geometry" />
        </mxCell>
        <mxCell id="3aNG4CSsGHU_DnrI1Hew-56" style="edgeStyle=orthogonalEdgeStyle;rounded=0;orthogonalLoop=1;jettySize=auto;html=1;" parent="1" source="3aNG4CSsGHU_DnrI1Hew-46" target="3aNG4CSsGHU_DnrI1Hew-32" edge="1">
          <mxGeometry relative="1" as="geometry" />
        </mxCell>
        <mxCell id="3aNG4CSsGHU_DnrI1Hew-46" value="Extra Tank 1x" style="swimlane;childLayout=stackLayout;horizontal=1;startSize=50;horizontalStack=0;rounded=1;fontSize=14;fontStyle=0;strokeWidth=2;resizeParent=0;resizeLast=1;shadow=0;dashed=0;align=center;arcSize=4;whiteSpace=wrap;html=1;" parent="1" vertex="1">
          <mxGeometry x="710" y="960" width="160" height="280" as="geometry" />
        </mxCell>
        <mxCell id="3aNG4CSsGHU_DnrI1Hew-47" value="-57&lt;br&gt;+ExtraTank&lt;br&gt;+Card Points = 0&lt;div&gt;&lt;br&gt;&lt;/div&gt;&lt;div&gt;&lt;div&gt;When displayed in your Safety Area, your&lt;/div&gt;&lt;div&gt;opponents cannot play an Out of Gas Card onto your Battle Pile.&lt;/div&gt;&lt;/div&gt;" style="align=left;strokeColor=none;fillColor=none;spacingLeft=4;spacingRight=4;fontSize=12;verticalAlign=top;resizable=0;rotatable=0;part=1;html=1;whiteSpace=wrap;" parent="3aNG4CSsGHU_DnrI1Hew-46" vertex="1">
          <mxGeometry y="50" width="160" height="230" as="geometry" />
        </mxCell>
        <mxCell id="3aNG4CSsGHU_DnrI1Hew-57" style="edgeStyle=orthogonalEdgeStyle;rounded=0;orthogonalLoop=1;jettySize=auto;html=1;" parent="1" source="3aNG4CSsGHU_DnrI1Hew-48" target="3aNG4CSsGHU_DnrI1Hew-34" edge="1">
          <mxGeometry relative="1" as="geometry" />
        </mxCell>
        <mxCell id="3aNG4CSsGHU_DnrI1Hew-48" value="Puncture Proof 1x" style="swimlane;childLayout=stackLayout;horizontal=1;startSize=50;horizontalStack=0;rounded=1;fontSize=14;fontStyle=0;strokeWidth=2;resizeParent=0;resizeLast=1;shadow=0;dashed=0;align=center;arcSize=4;whiteSpace=wrap;html=1;" parent="1" vertex="1">
          <mxGeometry x="900" y="960" width="160" height="280" as="geometry" />
        </mxCell>
        <mxCell id="3aNG4CSsGHU_DnrI1Hew-49" value="-58&lt;br&gt;+PuntureProof&lt;span style=&quot;color: rgba(0, 0, 0, 0); font-family: monospace; font-size: 0px; text-wrap-mode: nowrap;&quot;&gt;%3CmxGraphModel%3E%3Croot%3E%3CmxCell%20id%3D%220%22%2F%3E%3CmxCell%20id%3D%221%22%20parent%3D%220%22%2F%3E%3CmxCell%20id%3D%222%22%20value%3D%22Gas%206x%22%20style%3D%22swimlane%3BchildLayout%3DstackLayout%3Bhorizontal%3D1%3BstartSize%3D50%3BhorizontalStack%3D0%3Brounded%3D1%3BfontSize%3D14%3BfontStyle%3D0%3BstrokeWidth%3D2%3BresizeParent%3D0%3BresizeLast%3D1%3Bshadow%3D0%3Bdashed%3D0%3Balign%3Dcenter%3BarcSize%3D4%3BwhiteSpace%3Dwrap%3Bhtml%3D1%3B%22%20vertex%3D%221%22%20parent%3D%221%22%3E%3CmxGeometry%20x%3D%2240%22%20y%3D%22720%22%20width%3D%22160%22%20height%3D%22280%22%20as%3D%22geometry%22%2F%3E%3C%2FmxCell%3E%3CmxCell%20id%3D%223%22%20value%3D%22-19-24%26lt%3Bbr%26gt%3B%2BGas%26lt%3Bbr%26gt%3B%2BCard%20Points%20%3D%20100%26amp%3Bnbsp%3B%22%20style%3D%22align%3Dleft%3BstrokeColor%3Dnone%3BfillColor%3Dnone%3BspacingLeft%3D4%3BspacingRight%3D4%3BfontSize%3D12%3BverticalAlign%3Dtop%3Bresizable%3D0%3Brotatable%3D0%3Bpart%3D1%3Bhtml%3D1%3BwhiteSpace%3Dwrap%3B%22%20vertex%3D%221%22%20parent%3D%222%22%3E%3CmxGeometry%20y%3D%2250%22%20width%3D%22160%22%20height%3D%22230%22%20as%3D%22geometry%22%2F%3E%3C%2FmxCell%3E%3C%2Froot%3E%3C%2FmxGraphModel%3E&lt;/span&gt;&lt;br&gt;+Card Points = 0&lt;div&gt;&lt;br&gt;&lt;/div&gt;&lt;div&gt;&lt;div&gt;When displayed in your Safety Area,&lt;/div&gt;&lt;div&gt;your opponents cannot play a Flat Tire Card onto your Battle Pile.&lt;/div&gt;&lt;/div&gt;" style="align=left;strokeColor=none;fillColor=none;spacingLeft=4;spacingRight=4;fontSize=12;verticalAlign=top;resizable=0;rotatable=0;part=1;html=1;whiteSpace=wrap;" parent="3aNG4CSsGHU_DnrI1Hew-48" vertex="1">
          <mxGeometry y="50" width="160" height="230" as="geometry" />
        </mxCell>
        <mxCell id="3aNG4CSsGHU_DnrI1Hew-58" style="edgeStyle=orthogonalEdgeStyle;rounded=0;orthogonalLoop=1;jettySize=auto;html=1;" parent="1" source="3aNG4CSsGHU_DnrI1Hew-50" target="3aNG4CSsGHU_DnrI1Hew-36" edge="1">
          <mxGeometry relative="1" as="geometry" />
        </mxCell>
        <mxCell id="3aNG4CSsGHU_DnrI1Hew-50" value="Driving Ace 1x" style="swimlane;childLayout=stackLayout;horizontal=1;startSize=50;horizontalStack=0;rounded=1;fontSize=14;fontStyle=0;strokeWidth=2;resizeParent=0;resizeLast=1;shadow=0;dashed=0;align=center;arcSize=4;whiteSpace=wrap;html=1;" parent="1" vertex="1">
          <mxGeometry x="1085" y="960" width="160" height="280" as="geometry" />
        </mxCell>
        <mxCell id="3aNG4CSsGHU_DnrI1Hew-51" value="-59&lt;br&gt;+DrivingAce&lt;br&gt;+Card Points = 0&lt;div&gt;&lt;br&gt;&lt;/div&gt;&lt;div&gt;&lt;div&gt;When displayed in your Safety Area, your&lt;/div&gt;&lt;div&gt;opponents cannot play an Accident Card onto your Battle Pile.&lt;/div&gt;&lt;/div&gt;" style="align=left;strokeColor=none;fillColor=none;spacingLeft=4;spacingRight=4;fontSize=12;verticalAlign=top;resizable=0;rotatable=0;part=1;html=1;whiteSpace=wrap;" parent="3aNG4CSsGHU_DnrI1Hew-50" vertex="1">
          <mxGeometry y="50" width="160" height="230" as="geometry" />
        </mxCell>
        <mxCell id="3aNG4CSsGHU_DnrI1Hew-59" style="edgeStyle=orthogonalEdgeStyle;rounded=0;orthogonalLoop=1;jettySize=auto;html=1;" parent="1" source="3aNG4CSsGHU_DnrI1Hew-52" target="3aNG4CSsGHU_DnrI1Hew-38" edge="1">
          <mxGeometry relative="1" as="geometry" />
        </mxCell>
        <mxCell id="3aNG4CSsGHU_DnrI1Hew-60" style="edgeStyle=orthogonalEdgeStyle;rounded=0;orthogonalLoop=1;jettySize=auto;html=1;" parent="1" source="3aNG4CSsGHU_DnrI1Hew-52" target="3aNG4CSsGHU_DnrI1Hew-40" edge="1">
          <mxGeometry relative="1" as="geometry">
            <Array as="points">
              <mxPoint x="1450" y="920" />
              <mxPoint x="1550" y="920" />
            </Array>
          </mxGeometry>
        </mxCell>
        <mxCell id="3aNG4CSsGHU_DnrI1Hew-52" value="Right of Way 1x" style="swimlane;childLayout=stackLayout;horizontal=1;startSize=50;horizontalStack=0;rounded=1;fontSize=14;fontStyle=0;strokeWidth=2;resizeParent=0;resizeLast=1;shadow=0;dashed=0;align=center;arcSize=4;whiteSpace=wrap;html=1;" parent="1" vertex="1">
          <mxGeometry x="1280" y="960" width="350" height="280" as="geometry" />
        </mxCell>
        <mxCell id="3aNG4CSsGHU_DnrI1Hew-53" value="-60&lt;br&gt;+RightOfWay&lt;br&gt;+Card Points = 0&lt;div&gt;&lt;br&gt;&lt;/div&gt;&lt;div&gt;&lt;div&gt;When displayed in your team’s Safety&lt;/div&gt;&lt;div&gt;Area, your opponents cannot play a Stop Card on your Battle&lt;/div&gt;&lt;div&gt;Pile and cannot play a Speed Limit Card on your Speed Pile. This&lt;/div&gt;&lt;div&gt;card when displayed permits you to play Distance Cards even&lt;/div&gt;&lt;div&gt;though you do not have a Roll Card exposed. You may also play&lt;/div&gt;&lt;div&gt;75, 100, and 200 mile cards even though a Speed Limit Card is&lt;/div&gt;&lt;div&gt;exposed on top of your Speed Pile.&lt;/div&gt;&lt;/div&gt;" style="align=left;strokeColor=none;fillColor=none;spacingLeft=4;spacingRight=4;fontSize=12;verticalAlign=top;resizable=0;rotatable=0;part=1;html=1;whiteSpace=wrap;" parent="3aNG4CSsGHU_DnrI1Hew-52" vertex="1">
          <mxGeometry y="50" width="350" height="230" as="geometry" />
        </mxCell>
        <mxCell id="3aNG4CSsGHU_DnrI1Hew-61" value="200 4x" style="swimlane;childLayout=stackLayout;horizontal=1;startSize=50;horizontalStack=0;rounded=1;fontSize=14;fontStyle=0;strokeWidth=2;resizeParent=0;resizeLast=1;shadow=0;dashed=0;align=center;arcSize=4;whiteSpace=wrap;html=1;" parent="1" vertex="1">
          <mxGeometry x="710" y="1300" width="160" height="170" as="geometry" />
        </mxCell>
        <mxCell id="3aNG4CSsGHU_DnrI1Hew-62" value="-61-64&lt;div&gt;+TwoHundred&lt;br&gt;+Card Points = 200&lt;/div&gt;&lt;div&gt;&lt;br&gt;&lt;/div&gt;&lt;div&gt;&lt;div&gt;200 Distance Points&lt;/div&gt;&lt;/div&gt;" style="align=left;strokeColor=none;fillColor=none;spacingLeft=4;spacingRight=4;fontSize=12;verticalAlign=top;resizable=0;rotatable=0;part=1;html=1;whiteSpace=wrap;" parent="3aNG4CSsGHU_DnrI1Hew-61" vertex="1">
          <mxGeometry y="50" width="160" height="120" as="geometry" />
        </mxCell>
        <mxCell id="3aNG4CSsGHU_DnrI1Hew-63" value="100 12x" style="swimlane;childLayout=stackLayout;horizontal=1;startSize=50;horizontalStack=0;rounded=1;fontSize=14;fontStyle=0;strokeWidth=2;resizeParent=0;resizeLast=1;shadow=0;dashed=0;align=center;arcSize=4;whiteSpace=wrap;html=1;" parent="1" vertex="1">
          <mxGeometry x="900" y="1300" width="160" height="170" as="geometry" />
        </mxCell>
        <mxCell id="3aNG4CSsGHU_DnrI1Hew-64" value="-65-76&lt;div&gt;+OneHundred&lt;br&gt;+Card Points = 100&lt;/div&gt;&lt;div&gt;&lt;br&gt;&lt;/div&gt;&lt;div&gt;&lt;div&gt;100 Distance Points&lt;/div&gt;&lt;/div&gt;" style="align=left;strokeColor=none;fillColor=none;spacingLeft=4;spacingRight=4;fontSize=12;verticalAlign=top;resizable=0;rotatable=0;part=1;html=1;whiteSpace=wrap;" parent="3aNG4CSsGHU_DnrI1Hew-63" vertex="1">
          <mxGeometry y="50" width="160" height="120" as="geometry" />
        </mxCell>
        <mxCell id="3aNG4CSsGHU_DnrI1Hew-65" value="75 10x" style="swimlane;childLayout=stackLayout;horizontal=1;startSize=50;horizontalStack=0;rounded=1;fontSize=14;fontStyle=0;strokeWidth=2;resizeParent=0;resizeLast=1;shadow=0;dashed=0;align=center;arcSize=4;whiteSpace=wrap;html=1;" parent="1" vertex="1">
          <mxGeometry x="1090" y="1300" width="150" height="170" as="geometry" />
        </mxCell>
        <mxCell id="3aNG4CSsGHU_DnrI1Hew-66" value="-77-87&lt;div&gt;+SeventyFive&lt;br&gt;+Card Points = 75&lt;/div&gt;&lt;div&gt;&lt;br&gt;&lt;/div&gt;&lt;div&gt;75 Distance Points&lt;/div&gt;" style="align=left;strokeColor=none;fillColor=none;spacingLeft=4;spacingRight=4;fontSize=12;verticalAlign=top;resizable=0;rotatable=0;part=1;html=1;whiteSpace=wrap;" parent="3aNG4CSsGHU_DnrI1Hew-65" vertex="1">
          <mxGeometry y="50" width="150" height="120" as="geometry" />
        </mxCell>
        <mxCell id="3aNG4CSsGHU_DnrI1Hew-67" value="50 10x" style="swimlane;childLayout=stackLayout;horizontal=1;startSize=50;horizontalStack=0;rounded=1;fontSize=14;fontStyle=0;strokeWidth=2;resizeParent=0;resizeLast=1;shadow=0;dashed=0;align=center;arcSize=4;whiteSpace=wrap;html=1;" parent="1" vertex="1">
          <mxGeometry x="1280" y="1300" width="150" height="170" as="geometry" />
        </mxCell>
        <mxCell id="3aNG4CSsGHU_DnrI1Hew-68" value="-88-98&lt;div&gt;+Fifty&lt;br&gt;+Card Points = 50&lt;/div&gt;&lt;div&gt;&lt;br&gt;&lt;/div&gt;&lt;div&gt;&lt;div&gt;50 Distance Points&lt;/div&gt;&lt;/div&gt;" style="align=left;strokeColor=none;fillColor=none;spacingLeft=4;spacingRight=4;fontSize=12;verticalAlign=top;resizable=0;rotatable=0;part=1;html=1;whiteSpace=wrap;" parent="3aNG4CSsGHU_DnrI1Hew-67" vertex="1">
          <mxGeometry y="50" width="150" height="120" as="geometry" />
        </mxCell>
        <mxCell id="3aNG4CSsGHU_DnrI1Hew-69" value="25 10x" style="swimlane;childLayout=stackLayout;horizontal=1;startSize=50;horizontalStack=0;rounded=1;fontSize=14;fontStyle=0;strokeWidth=2;resizeParent=0;resizeLast=1;shadow=0;dashed=0;align=center;arcSize=4;whiteSpace=wrap;html=1;" parent="1" vertex="1">
          <mxGeometry x="1470" y="1300" width="160" height="170" as="geometry" />
        </mxCell>
        <mxCell id="3aNG4CSsGHU_DnrI1Hew-70" value="-99-109&lt;div&gt;+TwentyFive&lt;br&gt;+Card Points = 25&lt;/div&gt;&lt;div&gt;&lt;br&gt;&lt;/div&gt;&lt;div&gt;&lt;div&gt;25 Distance Points&lt;/div&gt;&lt;/div&gt;" style="align=left;strokeColor=none;fillColor=none;spacingLeft=4;spacingRight=4;fontSize=12;verticalAlign=top;resizable=0;rotatable=0;part=1;html=1;whiteSpace=wrap;" parent="3aNG4CSsGHU_DnrI1Hew-69" vertex="1">
          <mxGeometry y="50" width="160" height="120" as="geometry" />
        </mxCell>
        <mxCell id="U6Mql7gJV3qY9ODSW9Gl-1" value="&lt;font style=&quot;font-size: 42px;&quot;&gt;HAZARD&lt;/font&gt;" style="rounded=0;whiteSpace=wrap;html=1;" vertex="1" parent="1">
          <mxGeometry x="425" y="300" width="220" height="160" as="geometry" />
        </mxCell>
        <mxCell id="U6Mql7gJV3qY9ODSW9Gl-2" value="&lt;font style=&quot;font-size: 42px;&quot;&gt;REMEDY&lt;/font&gt;&lt;span style=&quot;color: rgba(0, 0, 0, 0); font-family: monospace; font-size: 0px; text-align: start; text-wrap-mode: nowrap;&quot;&gt;%3CmxGraphModel%3E%3Croot%3E%3CmxCell%20id%3D%220%22%2F%3E%3CmxCell%20id%3D%221%22%20parent%3D%220%22%2F%3E%3CmxCell%20id%3D%222%22%20value%3D%22%26lt%3Bfont%20style%3D%26quot%3Bfont-size%3A%2042px%3B%26quot%3B%26gt%3BHAZARD%26lt%3B%2Ffont%26gt%3B%22%20style%3D%22rounded%3D0%3BwhiteSpace%3Dwrap%3Bhtml%3D1%3B%22%20vertex%3D%221%22%20parent%3D%221%22%3E%3CmxGeometry%20x%3D%22425%22%20y%3D%22300%22%20width%3D%22220%22%20height%3D%22160%22%20as%3D%22geometry%22%2F%3E%3C%2FmxCell%3E%3C%2Froot%3E%3C%2FmxGraphModel%3E&lt;/span&gt;" style="rounded=0;whiteSpace=wrap;html=1;" vertex="1" parent="1">
          <mxGeometry x="425" y="660" width="220" height="160" as="geometry" />
        </mxCell>
        <mxCell id="U6Mql7gJV3qY9ODSW9Gl-3" value="&lt;font style=&quot;font-size: 42px;&quot;&gt;SAFETY&lt;/font&gt;" style="rounded=0;whiteSpace=wrap;html=1;" vertex="1" parent="1">
          <mxGeometry x="425" y="1020" width="220" height="160" as="geometry" />
        </mxCell>
        <mxCell id="U6Mql7gJV3qY9ODSW9Gl-4" value="&lt;font style=&quot;font-size: 42px;&quot;&gt;DISTANCE&lt;/font&gt;" style="rounded=0;whiteSpace=wrap;html=1;" vertex="1" parent="1">
          <mxGeometry x="425" y="1305" width="220" height="160" as="geometry" />
        </mxCell>
      </root>
    </mxGraphModel>
  </diagram>
  <diagram id="w-K7uPxzgDFNOFwpLX1X" name="Play/PossibleMoves">
    <mxGraphModel dx="751" dy="1547" grid="1" gridSize="10" guides="1" tooltips="1" connect="1" arrows="1" fold="1" page="1" pageScale="1" pageWidth="850" pageHeight="1100" math="0" shadow="0">
      <root>
        <mxCell id="0" />
        <mxCell id="1" parent="0" />
        <mxCell id="YdFKWZk2XQ5Mx7LUy3NO-5" style="edgeStyle=orthogonalEdgeStyle;rounded=0;orthogonalLoop=1;jettySize=auto;html=1;" parent="1" source="YdFKWZk2XQ5Mx7LUy3NO-1" target="YdFKWZk2XQ5Mx7LUy3NO-2" edge="1">
          <mxGeometry relative="1" as="geometry" />
        </mxCell>
        <mxCell id="zOiIVVMl-3K5MyKwjMzA-5" style="edgeStyle=orthogonalEdgeStyle;rounded=0;orthogonalLoop=1;jettySize=auto;html=1;entryX=0.475;entryY=0.01;entryDx=0;entryDy=0;entryPerimeter=0;" parent="1" source="YdFKWZk2XQ5Mx7LUy3NO-1" target="YdFKWZk2XQ5Mx7LUy3NO-3" edge="1">
          <mxGeometry relative="1" as="geometry" />
        </mxCell>
        <mxCell id="YdFKWZk2XQ5Mx7LUy3NO-1" value="&lt;span style=&quot;background-color: transparent; color: light-dark(rgb(0, 0, 0), rgb(255, 255, 255));&quot;&gt;&lt;font style=&quot;font-size: 14px;&quot;&gt;BATTLE PILE (STACK):&lt;/font&gt;&lt;/span&gt;&lt;div&gt;&lt;span style=&quot;background-color: transparent; color: light-dark(rgb(0, 0, 0), rgb(255, 255, 255));&quot;&gt;&lt;font style=&quot;font-size: 14px;&quot;&gt;&lt;br&gt;&lt;/font&gt;&lt;/span&gt;&lt;/div&gt;&lt;div&gt;&lt;span style=&quot;background-color: transparent; font-size: 14px;&quot;&gt;&lt;font style=&quot;&quot;&gt;&lt;div style=&quot;&quot;&gt;All Hazard and Remedy Cards are played on the Battle Piles with the&lt;/div&gt;&lt;div style=&quot;&quot;&gt;exception of the Speed Limit and End of Limit Cards. Hazard Cards&lt;/div&gt;&lt;div style=&quot;&quot;&gt;are played on your opponents’ Battle Pile and Remedy Cards on your&lt;/div&gt;&lt;div style=&quot;&quot;&gt;own Battle Pile.&lt;/div&gt;&lt;div style=&quot;&quot;&gt;Only the top card on each team’s Battle Pile should be visible as it is&lt;/div&gt;&lt;div style=&quot;&quot;&gt;this card which controls the play.&lt;/div&gt;&lt;/font&gt;&lt;/span&gt;&lt;/div&gt;" style="rounded=0;whiteSpace=wrap;html=1;align=center;" parent="1" vertex="1">
          <mxGeometry x="40" y="40" width="230" height="260" as="geometry" />
        </mxCell>
        <mxCell id="YdFKWZk2XQ5Mx7LUy3NO-2" value="POSSIBLE MOVES:&lt;div&gt;&lt;br&gt;&lt;/div&gt;&lt;div&gt;Player can play ROLL CARD onto BATTLE PILE to start playing DISTANCE CARDS (first turn or after hazard is fixed and roll card played)&lt;/div&gt;&lt;div&gt;&lt;br&gt;&lt;/div&gt;&lt;div&gt;Player can use a HAZARD CARD on another players BATTLE PILE if:&lt;/div&gt;&lt;div&gt;&amp;nbsp;- the other player has a ROLL CARD played (unless the other player has the RIGHT OF WAY card displayed)&lt;/div&gt;&lt;div&gt;&amp;nbsp;- the other player does not have a SAFETY CARD that can counter the HAZARD&lt;/div&gt;&lt;div&gt;&lt;br&gt;&lt;/div&gt;&lt;div&gt;Player cannot play a STOP CARD on another BATTLE PILE if they have the RIGHT OF WAY CARD on their SAFETY PILE.&lt;/div&gt;" style="rounded=0;whiteSpace=wrap;html=1;" parent="1" vertex="1">
          <mxGeometry x="330" y="40" width="270" height="260" as="geometry" />
        </mxCell>
        <mxCell id="YdFKWZk2XQ5Mx7LUy3NO-6" style="edgeStyle=orthogonalEdgeStyle;rounded=0;orthogonalLoop=1;jettySize=auto;html=1;" parent="1" source="YdFKWZk2XQ5Mx7LUy3NO-3" target="YdFKWZk2XQ5Mx7LUy3NO-4" edge="1">
          <mxGeometry relative="1" as="geometry" />
        </mxCell>
        <mxCell id="zOiIVVMl-3K5MyKwjMzA-6" style="edgeStyle=orthogonalEdgeStyle;rounded=0;orthogonalLoop=1;jettySize=auto;html=1;" parent="1" source="YdFKWZk2XQ5Mx7LUy3NO-3" target="YdFKWZk2XQ5Mx7LUy3NO-7" edge="1">
          <mxGeometry relative="1" as="geometry" />
        </mxCell>
        <mxCell id="YdFKWZk2XQ5Mx7LUy3NO-3" value="&lt;font style=&quot;font-size: 14px;&quot;&gt;SPEED PILE (STACK):&lt;/font&gt;&lt;div&gt;&lt;font style=&quot;font-size: 14px;&quot;&gt;&lt;br&gt;&lt;/font&gt;&lt;/div&gt;&lt;div&gt;&lt;div&gt;&lt;font style=&quot;font-size: 14px;&quot;&gt;Only the Speed Limit and End of Limit Cards are played on the Speed&lt;/font&gt;&lt;/div&gt;&lt;div&gt;&lt;font style=&quot;font-size: 14px;&quot;&gt;Piles. The former are played on an opponents’ Speed Pile and the&lt;/font&gt;&lt;/div&gt;&lt;div&gt;&lt;font style=&quot;font-size: 14px;&quot;&gt;latter on your own Speed Pile. Only the top card on each team’s&lt;/font&gt;&lt;/div&gt;&lt;div&gt;&lt;font style=&quot;font-size: 14px;&quot;&gt;Speed Pile should be visible as it is the card which controls the spee&lt;/font&gt;d.&lt;/div&gt;&lt;/div&gt;" style="rounded=0;whiteSpace=wrap;html=1;" parent="1" vertex="1">
          <mxGeometry x="40" y="340" width="240" height="300" as="geometry" />
        </mxCell>
        <mxCell id="YdFKWZk2XQ5Mx7LUy3NO-4" value="POSSIBLE MOVES:&lt;div&gt;&lt;br&gt;&lt;/div&gt;&lt;div&gt;Player can play END OF LIMIT onto their own speed pile to end the speed limit enforced upon them if there is one.&lt;/div&gt;&lt;div&gt;&lt;br&gt;&lt;/div&gt;&lt;div&gt;Player can play SPEED LIMITS onto other players speed piles if:&lt;/div&gt;&lt;div&gt;- The other player does not already have a speed limit card&lt;/div&gt;&lt;div&gt;- The other player does not have a RIGHT OF WAY card to block.&lt;/div&gt;" style="rounded=0;whiteSpace=wrap;html=1;" parent="1" vertex="1">
          <mxGeometry x="330" y="340" width="270" height="300" as="geometry" />
        </mxCell>
        <mxCell id="YdFKWZk2XQ5Mx7LUy3NO-9" style="edgeStyle=orthogonalEdgeStyle;rounded=0;orthogonalLoop=1;jettySize=auto;html=1;" parent="1" source="YdFKWZk2XQ5Mx7LUy3NO-7" target="YdFKWZk2XQ5Mx7LUy3NO-8" edge="1">
          <mxGeometry relative="1" as="geometry" />
        </mxCell>
        <mxCell id="zOiIVVMl-3K5MyKwjMzA-7" style="edgeStyle=orthogonalEdgeStyle;rounded=0;orthogonalLoop=1;jettySize=auto;html=1;" parent="1" source="YdFKWZk2XQ5Mx7LUy3NO-7" target="zOiIVVMl-3K5MyKwjMzA-1" edge="1">
          <mxGeometry relative="1" as="geometry" />
        </mxCell>
        <mxCell id="YdFKWZk2XQ5Mx7LUy3NO-7" value="SAFETY AREA (LIST??):&lt;div&gt;&lt;br&gt;&lt;/div&gt;&lt;div&gt;&lt;div&gt;Only the 4 safety cards are played in the safety areas. Safety Cards&lt;/div&gt;&lt;div&gt;are never played on your opponents’ Safety Area. All Safety Cards&lt;/div&gt;&lt;div&gt;that are played must be visible.&lt;/div&gt;&lt;/div&gt;" style="rounded=0;whiteSpace=wrap;html=1;fontSize=14;" parent="1" vertex="1">
          <mxGeometry x="40" y="680" width="240" height="280" as="geometry" />
        </mxCell>
        <mxCell id="YdFKWZk2XQ5Mx7LUy3NO-8" value="POSSIBLE MOVE:&lt;div&gt;&lt;br&gt;&lt;/div&gt;&lt;div&gt;Player can play their SAFETY CARD onto their safety area to be shielded from HAZARD cards, there are no cards that can block a SAFETY CARD play.&lt;/div&gt;&lt;div&gt;&lt;br&gt;&lt;/div&gt;&lt;div&gt;If a RIGHT OF WAY CARD is played, player does not have to play a ROLL! card,&amp;nbsp;&lt;/div&gt;" style="rounded=0;whiteSpace=wrap;html=1;" parent="1" vertex="1">
          <mxGeometry x="330" y="680" width="270" height="280" as="geometry" />
        </mxCell>
        <mxCell id="zOiIVVMl-3K5MyKwjMzA-9" style="edgeStyle=orthogonalEdgeStyle;rounded=0;orthogonalLoop=1;jettySize=auto;html=1;" parent="1" source="zOiIVVMl-3K5MyKwjMzA-1" target="zOiIVVMl-3K5MyKwjMzA-8" edge="1">
          <mxGeometry relative="1" as="geometry" />
        </mxCell>
        <mxCell id="zOiIVVMl-3K5MyKwjMzA-10" style="edgeStyle=orthogonalEdgeStyle;rounded=0;orthogonalLoop=1;jettySize=auto;html=1;" parent="1" source="zOiIVVMl-3K5MyKwjMzA-1" target="zOiIVVMl-3K5MyKwjMzA-2" edge="1">
          <mxGeometry relative="1" as="geometry" />
        </mxCell>
        <mxCell id="zOiIVVMl-3K5MyKwjMzA-1" value="DISTANCE PILE (QUEUE):&lt;div&gt;&lt;br&gt;&lt;/div&gt;&lt;div&gt;&lt;div&gt;All Distance Cards are played on your own Distance Piles. They are&lt;/div&gt;&lt;div&gt;never played onto the opponents’ piles. All Distance Cards that are&lt;/div&gt;&lt;div&gt;played to the table must be visible so that any player can see how far&lt;/div&gt;&lt;div&gt;you have traveled.&lt;/div&gt;&lt;/div&gt;" style="rounded=0;whiteSpace=wrap;html=1;fontSize=14;" parent="1" vertex="1">
          <mxGeometry x="40" y="1000" width="240" height="240" as="geometry" />
        </mxCell>
        <mxCell id="zOiIVVMl-3K5MyKwjMzA-2" value="POSSIBLE MOVE:&lt;div&gt;&lt;br&gt;&lt;/div&gt;&lt;div&gt;Player can play DISTANCE cards onto the DISTANCE PILE and possibly win the game if:&lt;/div&gt;&lt;div&gt;- The card does not exceed that of the Speed Limit placed onto the Speed Pile if there is one&lt;/div&gt;&lt;div&gt;- The card does not exceed 1000 miles to win the game, as the miles must be exact.&lt;/div&gt;&lt;div&gt;- The max 200 mile cards are not played (2x Mile cards per player)&lt;/div&gt;&lt;div&gt;- there is a ROLL! card played at the top of the BATTLE PILE, player cannot play unless there is a ROLL card at the top of the BATTLE PILE&amp;nbsp;&lt;/div&gt;&lt;div&gt;&lt;br&gt;&lt;/div&gt;&lt;div&gt;If player has a RIGHT OF WAY CARD:&lt;/div&gt;&lt;div&gt;- they can play DISTANCE CARDS without having to ROLL&lt;/div&gt;&lt;div&gt;- they can ignore SPEED LIMIT CARDS&lt;/div&gt;" style="rounded=0;whiteSpace=wrap;html=1;" parent="1" vertex="1">
          <mxGeometry x="400" y="1000" width="380" height="280" as="geometry" />
        </mxCell>
        <mxCell id="zOiIVVMl-3K5MyKwjMzA-4" style="edgeStyle=orthogonalEdgeStyle;rounded=0;orthogonalLoop=1;jettySize=auto;html=1;" parent="1" source="zOiIVVMl-3K5MyKwjMzA-3" target="YdFKWZk2XQ5Mx7LUy3NO-1" edge="1">
          <mxGeometry relative="1" as="geometry" />
        </mxCell>
        <mxCell id="zOiIVVMl-3K5MyKwjMzA-3" value="&lt;font style=&quot;font-size: 14px;&quot;&gt;Each player must have 6 cards total. The player draws one card from the draw pile and must play one card.&amp;nbsp;&lt;/font&gt;" style="rounded=0;whiteSpace=wrap;html=1;" parent="1" vertex="1">
          <mxGeometry x="40" y="-170" width="560" height="140" as="geometry" />
        </mxCell>
        <mxCell id="zOiIVVMl-3K5MyKwjMzA-12" style="edgeStyle=orthogonalEdgeStyle;rounded=0;orthogonalLoop=1;jettySize=auto;html=1;" parent="1" source="zOiIVVMl-3K5MyKwjMzA-8" target="zOiIVVMl-3K5MyKwjMzA-11" edge="1">
          <mxGeometry relative="1" as="geometry" />
        </mxCell>
        <mxCell id="zOiIVVMl-3K5MyKwjMzA-8" value="&lt;font style=&quot;font-size: 14px;&quot;&gt;If the player is unable to make any plays, they must discard one card to the discard pile.&lt;/font&gt;" style="rounded=0;whiteSpace=wrap;html=1;" parent="1" vertex="1">
          <mxGeometry x="40" y="1320" width="560" height="130" as="geometry" />
        </mxCell>
        <mxCell id="zOiIVVMl-3K5MyKwjMzA-11" value="&lt;div&gt;&lt;font style=&quot;font-size: 14px;&quot;&gt;Remember that a player’s basic turn consists of drawing one card, adding it&lt;/font&gt;&lt;/div&gt;&lt;div&gt;&lt;font style=&quot;font-size: 14px;&quot;&gt;to his hand and then playing one card to the table or discarding one card to the&lt;/font&gt;&lt;/div&gt;&lt;div&gt;&lt;font style=&quot;font-size: 14px;&quot;&gt;discard pile. Thus, he always holds six cards in his hand at the end of each turn.&lt;/font&gt;&lt;/div&gt;" style="rounded=0;whiteSpace=wrap;html=1;" parent="1" vertex="1">
          <mxGeometry x="40" y="1480" width="560" height="120" as="geometry" />
        </mxCell>
      </root>
    </mxGraphModel>
  </diagram>
  <diagram id="MVN8DxFH2ppANGF43z-3" name="ShuffleAlgo">
    <mxGraphModel dx="1428" dy="849" grid="1" gridSize="10" guides="1" tooltips="1" connect="1" arrows="1" fold="1" page="1" pageScale="1" pageWidth="850" pageHeight="1100" math="0" shadow="0">
      <root>
        <mxCell id="0" />
        <mxCell id="1" parent="0" />
        <mxCell id="Sdk_woeQH46CH47ouU6k-1" value="SHUFFLE ALGORITHM?" style="rounded=0;whiteSpace=wrap;html=1;" vertex="1" parent="1">
          <mxGeometry x="320" y="80" width="240" height="60" as="geometry" />
        </mxCell>
        <mxCell id="Sdk_woeQH46CH47ouU6k-5" style="edgeStyle=orthogonalEdgeStyle;rounded=0;orthogonalLoop=1;jettySize=auto;html=1;" edge="1" parent="1" source="Sdk_woeQH46CH47ouU6k-2" target="Sdk_woeQH46CH47ouU6k-3">
          <mxGeometry relative="1" as="geometry" />
        </mxCell>
        <mxCell id="Sdk_woeQH46CH47ouU6k-6" style="edgeStyle=orthogonalEdgeStyle;rounded=0;orthogonalLoop=1;jettySize=auto;html=1;" edge="1" parent="1" source="Sdk_woeQH46CH47ouU6k-2" target="Sdk_woeQH46CH47ouU6k-4">
          <mxGeometry relative="1" as="geometry" />
        </mxCell>
        <mxCell id="Sdk_woeQH46CH47ouU6k-2" value="split list into 2 parts" style="rounded=0;whiteSpace=wrap;html=1;" vertex="1" parent="1">
          <mxGeometry x="340" y="190" width="200" height="60" as="geometry" />
        </mxCell>
        <mxCell id="Sdk_woeQH46CH47ouU6k-8" style="edgeStyle=orthogonalEdgeStyle;rounded=0;orthogonalLoop=1;jettySize=auto;html=1;" edge="1" parent="1" source="Sdk_woeQH46CH47ouU6k-3" target="Sdk_woeQH46CH47ouU6k-7">
          <mxGeometry relative="1" as="geometry" />
        </mxCell>
        <mxCell id="Sdk_woeQH46CH47ouU6k-3" value="use random number generator to swap elements" style="rounded=0;whiteSpace=wrap;html=1;" vertex="1" parent="1">
          <mxGeometry x="140" y="300" width="200" height="60" as="geometry" />
        </mxCell>
        <mxCell id="Sdk_woeQH46CH47ouU6k-9" style="edgeStyle=orthogonalEdgeStyle;rounded=0;orthogonalLoop=1;jettySize=auto;html=1;" edge="1" parent="1" source="Sdk_woeQH46CH47ouU6k-4" target="Sdk_woeQH46CH47ouU6k-7">
          <mxGeometry relative="1" as="geometry" />
        </mxCell>
        <mxCell id="Sdk_woeQH46CH47ouU6k-4" value="use random number generator to swap elements" style="rounded=0;whiteSpace=wrap;html=1;" vertex="1" parent="1">
          <mxGeometry x="540" y="300" width="200" height="60" as="geometry" />
        </mxCell>
        <mxCell id="Sdk_woeQH46CH47ouU6k-10" style="edgeStyle=orthogonalEdgeStyle;rounded=0;orthogonalLoop=1;jettySize=auto;html=1;" edge="1" parent="1" source="Sdk_woeQH46CH47ouU6k-7" target="Sdk_woeQH46CH47ouU6k-2">
          <mxGeometry relative="1" as="geometry">
            <mxPoint x="210" y="200" as="targetPoint" />
            <Array as="points">
              <mxPoint x="440" y="550" />
              <mxPoint x="60" y="550" />
              <mxPoint x="60" y="220" />
            </Array>
          </mxGeometry>
        </mxCell>
        <mxCell id="Sdk_woeQH46CH47ouU6k-7" value="combine list" style="rounded=0;whiteSpace=wrap;html=1;" vertex="1" parent="1">
          <mxGeometry x="300" y="420" width="280" height="60" as="geometry" />
        </mxCell>
        <mxCell id="Sdk_woeQH46CH47ouU6k-11" value="repeat as necessary" style="rounded=0;whiteSpace=wrap;html=1;" vertex="1" parent="1">
          <mxGeometry x="350" y="520" width="180" height="60" as="geometry" />
        </mxCell>
      </root>
    </mxGraphModel>
  </diagram>
  <diagram id="Ev5SWUk_I4rhQyWXzl9r" name="Classes">
    <mxGraphModel dx="679" dy="404" grid="1" gridSize="10" guides="1" tooltips="1" connect="1" arrows="1" fold="1" page="1" pageScale="1" pageWidth="850" pageHeight="1100" math="0" shadow="0">
      <root>
        <mxCell id="0" />
        <mxCell id="1" parent="0" />
        <mxCell id="ZvdQ-79a2GsRjgnOrOjR-8" style="edgeStyle=orthogonalEdgeStyle;rounded=0;orthogonalLoop=1;jettySize=auto;html=1;" edge="1" parent="1" source="ZvdQ-79a2GsRjgnOrOjR-3" target="ZvdQ-79a2GsRjgnOrOjR-7">
          <mxGeometry relative="1" as="geometry" />
        </mxCell>
        <mxCell id="ZvdQ-79a2GsRjgnOrOjR-3" value="Card" style="swimlane;fontStyle=0;childLayout=stackLayout;horizontal=1;startSize=26;fillColor=none;horizontalStack=0;resizeParent=1;resizeParentMax=0;resizeLast=0;collapsible=1;marginBottom=0;whiteSpace=wrap;html=1;" vertex="1" parent="1">
          <mxGeometry x="120" y="40" width="140" height="78" as="geometry" />
        </mxCell>
        <mxCell id="ZvdQ-79a2GsRjgnOrOjR-4" value="+ name: string" style="text;strokeColor=none;fillColor=none;align=left;verticalAlign=top;spacingLeft=4;spacingRight=4;overflow=hidden;rotatable=0;points=[[0,0.5],[1,0.5]];portConstraint=eastwest;whiteSpace=wrap;html=1;" vertex="1" parent="ZvdQ-79a2GsRjgnOrOjR-3">
          <mxGeometry y="26" width="140" height="26" as="geometry" />
        </mxCell>
        <mxCell id="ZvdQ-79a2GsRjgnOrOjR-5" value="+ value: int" style="text;strokeColor=none;fillColor=none;align=left;verticalAlign=top;spacingLeft=4;spacingRight=4;overflow=hidden;rotatable=0;points=[[0,0.5],[1,0.5]];portConstraint=eastwest;whiteSpace=wrap;html=1;" vertex="1" parent="ZvdQ-79a2GsRjgnOrOjR-3">
          <mxGeometry y="52" width="140" height="26" as="geometry" />
        </mxCell>
        <mxCell id="ZvdQ-79a2GsRjgnOrOjR-7" value="&lt;p style=&quot;margin:0px;margin-top:4px;text-align:center;&quot;&gt;&lt;i&gt;Player&lt;/i&gt;&lt;/p&gt;&lt;hr size=&quot;1&quot; style=&quot;border-style:solid;&quot;&gt;&lt;p style=&quot;margin:0px;margin-left:4px;&quot;&gt;+ name: string&lt;br&gt;+ player deck: list&amp;lt;Card&amp;gt;&lt;/p&gt;&lt;hr size=&quot;1&quot; style=&quot;border-style:solid;&quot;&gt;&lt;p style=&quot;margin:0px;margin-left:4px;&quot;&gt;&lt;br&gt;&lt;/p&gt;&lt;p style=&quot;margin:0px;margin-left:4px;&quot;&gt;+ printDeck(): void&lt;/p&gt;&lt;p style=&quot;margin:0px;margin-left:4px;&quot;&gt;&lt;br&gt;- initializePlayerDeck(string, list&amp;lt;Card&amp;gt; deck): void&lt;/p&gt;" style="verticalAlign=top;align=left;overflow=fill;html=1;whiteSpace=wrap;" vertex="1" parent="1">
          <mxGeometry x="95" y="200" width="190" height="180" as="geometry" />
        </mxCell>
      </root>
    </mxGraphModel>
  </diagram>
  <diagram id="UKw_BvwwVg1tav9nhk1u" name="main">
    <mxGraphModel dx="1188" dy="708" grid="1" gridSize="10" guides="1" tooltips="1" connect="1" arrows="1" fold="1" page="1" pageScale="1" pageWidth="850" pageHeight="1100" math="0" shadow="0">
      <root>
        <mxCell id="0" />
        <mxCell id="1" parent="0" />
        <mxCell id="cGORmpaQir57u6oM0tRX-13" style="edgeStyle=orthogonalEdgeStyle;rounded=0;orthogonalLoop=1;jettySize=auto;html=1;" edge="1" parent="1" source="cGORmpaQir57u6oM0tRX-1" target="cGORmpaQir57u6oM0tRX-4">
          <mxGeometry relative="1" as="geometry" />
        </mxCell>
        <mxCell id="cGORmpaQir57u6oM0tRX-1" value="START PROGRAM" style="strokeWidth=2;html=1;shape=mxgraph.flowchart.start_1;whiteSpace=wrap;" vertex="1" parent="1">
          <mxGeometry x="375" y="10" width="100" height="60" as="geometry" />
        </mxCell>
        <mxCell id="cGORmpaQir57u6oM0tRX-12" style="edgeStyle=orthogonalEdgeStyle;rounded=0;orthogonalLoop=1;jettySize=auto;html=1;" edge="1" parent="1" source="cGORmpaQir57u6oM0tRX-4" target="cGORmpaQir57u6oM0tRX-6">
          <mxGeometry relative="1" as="geometry" />
        </mxCell>
        <mxCell id="cGORmpaQir57u6oM0tRX-4" value="INPUT: How many players are playing?" style="rounded=0;whiteSpace=wrap;html=1;" vertex="1" parent="1">
          <mxGeometry x="365" y="110" width="120" height="60" as="geometry" />
        </mxCell>
        <mxCell id="cGORmpaQir57u6oM0tRX-14" style="edgeStyle=orthogonalEdgeStyle;rounded=0;orthogonalLoop=1;jettySize=auto;html=1;" edge="1" parent="1" source="cGORmpaQir57u6oM0tRX-6" target="cGORmpaQir57u6oM0tRX-7">
          <mxGeometry relative="1" as="geometry" />
        </mxCell>
        <mxCell id="cGORmpaQir57u6oM0tRX-6" value="for loop:" style="strokeWidth=2;html=1;shape=mxgraph.flowchart.loop_limit;whiteSpace=wrap;" vertex="1" parent="1">
          <mxGeometry x="375" y="210" width="100" height="60" as="geometry" />
        </mxCell>
        <mxCell id="cGORmpaQir57u6oM0tRX-17" style="edgeStyle=orthogonalEdgeStyle;rounded=0;orthogonalLoop=1;jettySize=auto;html=1;" edge="1" parent="1" source="cGORmpaQir57u6oM0tRX-7" target="cGORmpaQir57u6oM0tRX-15">
          <mxGeometry relative="1" as="geometry" />
        </mxCell>
        <mxCell id="cGORmpaQir57u6oM0tRX-7" value="ask for name" style="rounded=0;whiteSpace=wrap;html=1;" vertex="1" parent="1">
          <mxGeometry x="365" y="290" width="120" height="60" as="geometry" />
        </mxCell>
        <mxCell id="cGORmpaQir57u6oM0tRX-18" style="edgeStyle=orthogonalEdgeStyle;rounded=0;orthogonalLoop=1;jettySize=auto;html=1;" edge="1" parent="1" source="cGORmpaQir57u6oM0tRX-15" target="cGORmpaQir57u6oM0tRX-6">
          <mxGeometry relative="1" as="geometry">
            <mxPoint x="530" y="240" as="targetPoint" />
            <Array as="points">
              <mxPoint x="560" y="400" />
              <mxPoint x="560" y="240" />
            </Array>
          </mxGeometry>
        </mxCell>
        <mxCell id="cGORmpaQir57u6oM0tRX-22" style="edgeStyle=orthogonalEdgeStyle;rounded=0;orthogonalLoop=1;jettySize=auto;html=1;" edge="1" parent="1" source="cGORmpaQir57u6oM0tRX-15" target="cGORmpaQir57u6oM0tRX-21">
          <mxGeometry relative="1" as="geometry" />
        </mxCell>
        <mxCell id="cGORmpaQir57u6oM0tRX-15" value="create player class for player and initialize their hand" style="rounded=0;whiteSpace=wrap;html=1;" vertex="1" parent="1">
          <mxGeometry x="340" y="370" width="170" height="60" as="geometry" />
        </mxCell>
        <mxCell id="ZNAC1UmDauDvrBg7R1vJ-2" style="edgeStyle=orthogonalEdgeStyle;rounded=0;orthogonalLoop=1;jettySize=auto;html=1;" edge="1" parent="1" source="cGORmpaQir57u6oM0tRX-21" target="ZNAC1UmDauDvrBg7R1vJ-1">
          <mxGeometry relative="1" as="geometry" />
        </mxCell>
        <mxCell id="cGORmpaQir57u6oM0tRX-21" value="START GAME" style="strokeWidth=2;html=1;shape=mxgraph.flowchart.start_1;whiteSpace=wrap;" vertex="1" parent="1">
          <mxGeometry x="375" y="480" width="100" height="60" as="geometry" />
        </mxCell>
        <mxCell id="ZNAC1UmDauDvrBg7R1vJ-8" style="edgeStyle=orthogonalEdgeStyle;rounded=0;orthogonalLoop=1;jettySize=auto;html=1;" edge="1" parent="1" source="ZNAC1UmDauDvrBg7R1vJ-1" target="ZNAC1UmDauDvrBg7R1vJ-7">
          <mxGeometry relative="1" as="geometry" />
        </mxCell>
        <mxCell id="ZNAC1UmDauDvrBg7R1vJ-1" value="player draws from top of deck" style="rounded=0;whiteSpace=wrap;html=1;" vertex="1" parent="1">
          <mxGeometry x="365" y="570" width="120" height="60" as="geometry" />
        </mxCell>
        <mxCell id="ZNAC1UmDauDvrBg7R1vJ-10" style="edgeStyle=orthogonalEdgeStyle;rounded=0;orthogonalLoop=1;jettySize=auto;html=1;" edge="1" parent="1" source="ZNAC1UmDauDvrBg7R1vJ-7" target="ZNAC1UmDauDvrBg7R1vJ-9">
          <mxGeometry relative="1" as="geometry" />
        </mxCell>
        <mxCell id="ZNAC1UmDauDvrBg7R1vJ-12" style="edgeStyle=orthogonalEdgeStyle;rounded=0;orthogonalLoop=1;jettySize=auto;html=1;" edge="1" parent="1" source="ZNAC1UmDauDvrBg7R1vJ-7" target="ZNAC1UmDauDvrBg7R1vJ-11">
          <mxGeometry relative="1" as="geometry" />
        </mxCell>
        <mxCell id="ZNAC1UmDauDvrBg7R1vJ-7" value="player chooses which card to play" style="rounded=0;whiteSpace=wrap;html=1;" vertex="1" parent="1">
          <mxGeometry x="365" y="660" width="120" height="60" as="geometry" />
        </mxCell>
        <mxCell id="ZNAC1UmDauDvrBg7R1vJ-16" style="edgeStyle=orthogonalEdgeStyle;rounded=0;orthogonalLoop=1;jettySize=auto;html=1;" edge="1" parent="1" source="ZNAC1UmDauDvrBg7R1vJ-9" target="ZNAC1UmDauDvrBg7R1vJ-15">
          <mxGeometry relative="1" as="geometry" />
        </mxCell>
        <mxCell id="ZNAC1UmDauDvrBg7R1vJ-9" value="card is valid" style="strokeWidth=2;html=1;shape=mxgraph.flowchart.decision;whiteSpace=wrap;" vertex="1" parent="1">
          <mxGeometry x="240" y="760" width="100" height="100" as="geometry" />
        </mxCell>
        <mxCell id="ZNAC1UmDauDvrBg7R1vJ-13" style="edgeStyle=orthogonalEdgeStyle;rounded=0;orthogonalLoop=1;jettySize=auto;html=1;" edge="1" parent="1" source="ZNAC1UmDauDvrBg7R1vJ-11" target="ZNAC1UmDauDvrBg7R1vJ-7">
          <mxGeometry relative="1" as="geometry">
            <mxPoint x="430" y="750" as="targetPoint" />
          </mxGeometry>
        </mxCell>
        <mxCell id="ZNAC1UmDauDvrBg7R1vJ-11" value="card is invalid" style="strokeWidth=2;html=1;shape=mxgraph.flowchart.decision;whiteSpace=wrap;" vertex="1" parent="1">
          <mxGeometry x="510" y="760" width="100" height="100" as="geometry" />
        </mxCell>
        <mxCell id="ZNAC1UmDauDvrBg7R1vJ-17" style="edgeStyle=orthogonalEdgeStyle;rounded=0;orthogonalLoop=1;jettySize=auto;html=1;" edge="1" parent="1" source="ZNAC1UmDauDvrBg7R1vJ-15" target="ZNAC1UmDauDvrBg7R1vJ-1">
          <mxGeometry relative="1" as="geometry">
            <mxPoint x="240" y="580" as="targetPoint" />
            <Array as="points">
              <mxPoint x="180" y="940" />
              <mxPoint x="180" y="600" />
            </Array>
          </mxGeometry>
        </mxCell>
        <mxCell id="ZNAC1UmDauDvrBg7R1vJ-15" value="play continues to next player" style="rounded=0;whiteSpace=wrap;html=1;" vertex="1" parent="1">
          <mxGeometry x="230" y="910" width="120" height="60" as="geometry" />
        </mxCell>
      </root>
    </mxGraphModel>
  </diagram>
  <diagram id="SZeZ-LLWQOK1oGfzD-Y5" name="playvalidation">
    <mxGraphModel dx="3565" dy="2123" grid="1" gridSize="10" guides="1" tooltips="1" connect="1" arrows="1" fold="1" page="1" pageScale="1" pageWidth="850" pageHeight="1100" math="0" shadow="0">
      <root>
        <mxCell id="0" />
        <mxCell id="1" parent="0" />
        <mxCell id="j_MPITyio3KFGZgEdN_8-16" style="edgeStyle=orthogonalEdgeStyle;rounded=0;orthogonalLoop=1;jettySize=auto;html=1;fontColor=default;" parent="1" source="-mgPvkg2nEw_O2jmgisk-3" target="j_MPITyio3KFGZgEdN_8-13" edge="1">
          <mxGeometry relative="1" as="geometry" />
        </mxCell>
        <mxCell id="j_MPITyio3KFGZgEdN_8-17" value="no" style="edgeLabel;html=1;align=center;verticalAlign=middle;resizable=0;points=[];fontColor=default;" parent="j_MPITyio3KFGZgEdN_8-16" vertex="1" connectable="0">
          <mxGeometry x="-0.6066" y="-1" relative="1" as="geometry">
            <mxPoint as="offset" />
          </mxGeometry>
        </mxCell>
        <mxCell id="-mgPvkg2nEw_O2jmgisk-3" value="if value == -1 (HAZARD)" style="rhombus;whiteSpace=wrap;html=1;fontColor=default;" parent="1" vertex="1">
          <mxGeometry x="195.72" y="490" width="120" height="80" as="geometry" />
        </mxCell>
        <mxCell id="-mgPvkg2nEw_O2jmgisk-5" value="yes" style="edgeStyle=orthogonalEdgeStyle;html=1;align=left;verticalAlign=top;endArrow=open;endSize=8;rounded=0;fontColor=default;" parent="1" source="-mgPvkg2nEw_O2jmgisk-3" edge="1">
          <mxGeometry x="-1" relative="1" as="geometry">
            <mxPoint x="255.72" y="650" as="targetPoint" />
          </mxGeometry>
        </mxCell>
        <mxCell id="c0Fqy5f3tTUmJREjbb51-4" style="edgeStyle=orthogonalEdgeStyle;rounded=0;orthogonalLoop=1;jettySize=auto;html=1;fontColor=default;" parent="1" source="iJVhL-Mhv6_13bu7llo5-1" target="c0Fqy5f3tTUmJREjbb51-1" edge="1">
          <mxGeometry relative="1" as="geometry" />
        </mxCell>
        <mxCell id="iJVhL-Mhv6_13bu7llo5-1" value="INPUT: choose player to target" style="rounded=0;whiteSpace=wrap;html=1;fontColor=default;" parent="1" vertex="1">
          <mxGeometry x="195.72" y="650" width="120" height="60" as="geometry" />
        </mxCell>
        <mxCell id="c0Fqy5f3tTUmJREjbb51-1" value="does target&lt;div&gt;have ROLL&amp;nbsp;&lt;span style=&quot;background-color: transparent;&quot;&gt;card played?&lt;/span&gt;&lt;/div&gt;" style="rhombus;whiteSpace=wrap;html=1;fontColor=default;" parent="1" vertex="1">
          <mxGeometry x="170" y="760" width="171.43" height="100" as="geometry" />
        </mxCell>
        <mxCell id="c0Fqy5f3tTUmJREjbb51-2" value="no" style="edgeStyle=orthogonalEdgeStyle;html=1;align=left;verticalAlign=bottom;endArrow=open;endSize=8;rounded=0;entryX=0;entryY=0.5;entryDx=0;entryDy=0;fontColor=default;" parent="1" source="c0Fqy5f3tTUmJREjbb51-1" target="j_MPITyio3KFGZgEdN_8-2" edge="1">
          <mxGeometry x="-1" relative="1" as="geometry">
            <mxPoint x="435.72" y="810" as="targetPoint" />
          </mxGeometry>
        </mxCell>
        <mxCell id="c0Fqy5f3tTUmJREjbb51-3" value="yes" style="edgeStyle=orthogonalEdgeStyle;html=1;align=left;verticalAlign=top;endArrow=open;endSize=8;rounded=0;fontColor=default;" parent="1" edge="1">
          <mxGeometry x="-1" relative="1" as="geometry">
            <mxPoint x="255.72" y="930" as="targetPoint" />
            <mxPoint x="255.72" y="860" as="sourcePoint" />
          </mxGeometry>
        </mxCell>
        <mxCell id="j_MPITyio3KFGZgEdN_8-5" style="edgeStyle=orthogonalEdgeStyle;rounded=0;orthogonalLoop=1;jettySize=auto;html=1;fontColor=default;" parent="1" source="j_MPITyio3KFGZgEdN_8-1" target="j_MPITyio3KFGZgEdN_8-4" edge="1">
          <mxGeometry relative="1" as="geometry" />
        </mxCell>
        <mxCell id="j_MPITyio3KFGZgEdN_8-1" value="player may play hazard card on targets battle pile (stack)&amp;nbsp;" style="html=1;whiteSpace=wrap;fontColor=default;" parent="1" vertex="1">
          <mxGeometry x="194" y="1080" width="120" height="80" as="geometry" />
        </mxCell>
        <mxCell id="j_MPITyio3KFGZgEdN_8-6" style="edgeStyle=orthogonalEdgeStyle;rounded=0;orthogonalLoop=1;jettySize=auto;html=1;fontColor=default;" parent="1" source="j_MPITyio3KFGZgEdN_8-2" target="j_MPITyio3KFGZgEdN_8-10" edge="1">
          <mxGeometry relative="1" as="geometry">
            <mxPoint x="70" y="400" as="targetPoint" />
            <Array as="points">
              <mxPoint x="485" y="1420" />
              <mxPoint x="80" y="1420" />
              <mxPoint x="80" y="400" />
            </Array>
          </mxGeometry>
        </mxCell>
        <mxCell id="j_MPITyio3KFGZgEdN_8-2" value="move invalid" style="rounded=0;whiteSpace=wrap;html=1;fontColor=default;" parent="1" vertex="1">
          <mxGeometry x="420.72" y="780" width="120" height="60" as="geometry" />
        </mxCell>
        <mxCell id="ph7asP7YNFt0ys2VyMSe-30" style="edgeStyle=orthogonalEdgeStyle;rounded=0;orthogonalLoop=1;jettySize=auto;html=1;entryX=0.5;entryY=0;entryDx=0;entryDy=0;fontColor=default;" parent="1" source="j_MPITyio3KFGZgEdN_8-3" target="ph7asP7YNFt0ys2VyMSe-29" edge="1">
          <mxGeometry relative="1" as="geometry" />
        </mxCell>
        <mxCell id="j_MPITyio3KFGZgEdN_8-3" value="VALIDATE&lt;div&gt;MOVE&lt;/div&gt;" style="ellipse;whiteSpace=wrap;html=1;aspect=fixed;fontColor=default;" parent="1" vertex="1">
          <mxGeometry x="216" y="70" width="80" height="80" as="geometry" />
        </mxCell>
        <mxCell id="j_MPITyio3KFGZgEdN_8-4" value="CONTINUE&lt;div&gt;PLAY&lt;/div&gt;" style="ellipse;whiteSpace=wrap;html=1;aspect=fixed;fontColor=default;" parent="1" vertex="1">
          <mxGeometry x="214" y="1230" width="80" height="80" as="geometry" />
        </mxCell>
        <mxCell id="j_MPITyio3KFGZgEdN_8-12" style="edgeStyle=orthogonalEdgeStyle;rounded=0;orthogonalLoop=1;jettySize=auto;html=1;fontColor=default;" parent="1" source="j_MPITyio3KFGZgEdN_8-10" target="-mgPvkg2nEw_O2jmgisk-3" edge="1">
          <mxGeometry relative="1" as="geometry" />
        </mxCell>
        <mxCell id="j_MPITyio3KFGZgEdN_8-10" value="choose card to play" style="rounded=0;whiteSpace=wrap;html=1;fontColor=default;" parent="1" vertex="1">
          <mxGeometry x="196" y="370" width="120" height="60" as="geometry" />
        </mxCell>
        <mxCell id="j_MPITyio3KFGZgEdN_8-13" value="if value == 0&lt;div&gt;(SAFETY)&amp;nbsp;&lt;/div&gt;" style="rhombus;whiteSpace=wrap;html=1;fontColor=default;" parent="1" vertex="1">
          <mxGeometry x="570" y="490" width="180" height="80" as="geometry" />
        </mxCell>
        <mxCell id="j_MPITyio3KFGZgEdN_8-14" value="no" style="edgeStyle=orthogonalEdgeStyle;html=1;align=left;verticalAlign=bottom;endArrow=open;endSize=8;rounded=0;fontColor=default;" parent="1" source="j_MPITyio3KFGZgEdN_8-13" edge="1">
          <mxGeometry x="-1" relative="1" as="geometry">
            <mxPoint x="1040" y="530" as="targetPoint" />
          </mxGeometry>
        </mxCell>
        <mxCell id="j_MPITyio3KFGZgEdN_8-15" value="yes" style="edgeStyle=orthogonalEdgeStyle;html=1;align=left;verticalAlign=top;endArrow=open;endSize=8;rounded=0;fontColor=default;" parent="1" source="j_MPITyio3KFGZgEdN_8-13" edge="1">
          <mxGeometry x="-1" relative="1" as="geometry">
            <mxPoint x="660" y="650" as="targetPoint" />
          </mxGeometry>
        </mxCell>
        <mxCell id="hKm8eqJjznfl_MhjKugb-3" style="edgeStyle=orthogonalEdgeStyle;rounded=0;orthogonalLoop=1;jettySize=auto;html=1;fontColor=default;" parent="1" source="ua4KxfTbrfr1bmwIvNmO-1" target="hKm8eqJjznfl_MhjKugb-1" edge="1">
          <mxGeometry relative="1" as="geometry" />
        </mxCell>
        <mxCell id="ua4KxfTbrfr1bmwIvNmO-1" value="player can play safety card onto safety area" style="rounded=0;whiteSpace=wrap;html=1;fontColor=default;" parent="1" vertex="1">
          <mxGeometry x="600" y="650" width="120" height="60" as="geometry" />
        </mxCell>
        <mxCell id="dcz9TGM3HykB3ji_7h1u-1" value="if value == 1&lt;div&gt;(REMEDY)&lt;/div&gt;" style="rhombus;whiteSpace=wrap;html=1;fontColor=default;" parent="1" vertex="1">
          <mxGeometry x="850" y="490" width="160" height="80" as="geometry" />
        </mxCell>
        <mxCell id="dcz9TGM3HykB3ji_7h1u-2" value="no" style="edgeStyle=orthogonalEdgeStyle;html=1;align=left;verticalAlign=bottom;endArrow=open;endSize=8;rounded=0;fontColor=default;" parent="1" source="dcz9TGM3HykB3ji_7h1u-1" edge="1">
          <mxGeometry x="-1" relative="1" as="geometry">
            <mxPoint x="1360" y="530" as="targetPoint" />
          </mxGeometry>
        </mxCell>
        <mxCell id="hKm8eqJjznfl_MhjKugb-1" value="CONTINUE&lt;div&gt;PLAY&lt;/div&gt;" style="strokeWidth=2;html=1;shape=mxgraph.flowchart.start_2;whiteSpace=wrap;fontColor=default;" parent="1" vertex="1">
          <mxGeometry x="610" y="770" width="100" height="100" as="geometry" />
        </mxCell>
        <mxCell id="EqiWw9plrwAncAhiOtz7-1" value="" style="edgeStyle=orthogonalEdgeStyle;html=1;align=left;verticalAlign=top;endArrow=open;endSize=8;rounded=0;fontColor=default;" parent="1" source="dcz9TGM3HykB3ji_7h1u-1" edge="1">
          <mxGeometry x="-1" relative="1" as="geometry">
            <mxPoint x="930" y="650" as="targetPoint" />
            <mxPoint x="930" y="570" as="sourcePoint" />
          </mxGeometry>
        </mxCell>
        <mxCell id="EqiWw9plrwAncAhiOtz7-3" value="yes" style="edgeLabel;html=1;align=center;verticalAlign=middle;resizable=0;points=[];fontColor=default;" parent="EqiWw9plrwAncAhiOtz7-1" vertex="1" connectable="0">
          <mxGeometry x="-0.7019" y="-1" relative="1" as="geometry">
            <mxPoint as="offset" />
          </mxGeometry>
        </mxCell>
        <mxCell id="EqiWw9plrwAncAhiOtz7-4" value="does player have a hazard card on top of their battle pile?" style="rhombus;whiteSpace=wrap;html=1;fontColor=default;" parent="1" vertex="1">
          <mxGeometry x="850" y="650" width="160" height="80" as="geometry" />
        </mxCell>
        <mxCell id="EqiWw9plrwAncAhiOtz7-5" value="no" style="edgeStyle=orthogonalEdgeStyle;html=1;align=left;verticalAlign=bottom;endArrow=open;endSize=8;rounded=0;entryX=0.5;entryY=0;entryDx=0;entryDy=0;fontColor=default;" parent="1" source="EqiWw9plrwAncAhiOtz7-4" target="EqiWw9plrwAncAhiOtz7-11" edge="1">
          <mxGeometry x="-1" relative="1" as="geometry">
            <mxPoint x="1160" y="690" as="targetPoint" />
          </mxGeometry>
        </mxCell>
        <mxCell id="EqiWw9plrwAncAhiOtz7-6" value="yes" style="edgeStyle=orthogonalEdgeStyle;html=1;align=left;verticalAlign=top;endArrow=open;endSize=8;rounded=0;fontColor=default;" parent="1" source="EqiWw9plrwAncAhiOtz7-4" edge="1">
          <mxGeometry x="-1" relative="1" as="geometry">
            <mxPoint x="930" y="820" as="targetPoint" />
          </mxGeometry>
        </mxCell>
        <mxCell id="EqiWw9plrwAncAhiOtz7-8" value="does remedy card correspond to the matching hazard card?" style="rhombus;whiteSpace=wrap;html=1;fontColor=default;" parent="1" vertex="1">
          <mxGeometry x="840" y="820" width="180" height="80" as="geometry" />
        </mxCell>
        <mxCell id="EqiWw9plrwAncAhiOtz7-9" value="no" style="edgeStyle=orthogonalEdgeStyle;html=1;align=left;verticalAlign=bottom;endArrow=open;endSize=8;rounded=0;fontColor=default;" parent="1" source="EqiWw9plrwAncAhiOtz7-8" edge="1">
          <mxGeometry x="-1" relative="1" as="geometry">
            <mxPoint x="1160" y="860" as="targetPoint" />
          </mxGeometry>
        </mxCell>
        <mxCell id="EqiWw9plrwAncAhiOtz7-10" value="yes" style="edgeStyle=orthogonalEdgeStyle;html=1;align=left;verticalAlign=top;endArrow=open;endSize=8;rounded=0;fontColor=default;" parent="1" source="EqiWw9plrwAncAhiOtz7-8" edge="1">
          <mxGeometry x="-1" relative="1" as="geometry">
            <mxPoint x="930" y="980" as="targetPoint" />
          </mxGeometry>
        </mxCell>
        <mxCell id="EqiWw9plrwAncAhiOtz7-12" style="edgeStyle=orthogonalEdgeStyle;rounded=0;orthogonalLoop=1;jettySize=auto;html=1;fontColor=default;" parent="1" source="EqiWw9plrwAncAhiOtz7-11" edge="1">
          <mxGeometry relative="1" as="geometry">
            <mxPoint x="460" y="1420" as="targetPoint" />
            <Array as="points">
              <mxPoint x="1170" y="1420" />
              <mxPoint x="480" y="1420" />
            </Array>
          </mxGeometry>
        </mxCell>
        <mxCell id="EqiWw9plrwAncAhiOtz7-11" value="move invalid" style="rounded=0;whiteSpace=wrap;html=1;fontColor=default;" parent="1" vertex="1">
          <mxGeometry x="1110" y="830" width="120" height="60" as="geometry" />
        </mxCell>
        <mxCell id="EqiWw9plrwAncAhiOtz7-15" style="edgeStyle=orthogonalEdgeStyle;rounded=0;orthogonalLoop=1;jettySize=auto;html=1;fontColor=default;" parent="1" source="EqiWw9plrwAncAhiOtz7-13" target="EqiWw9plrwAncAhiOtz7-14" edge="1">
          <mxGeometry relative="1" as="geometry" />
        </mxCell>
        <mxCell id="EqiWw9plrwAncAhiOtz7-13" value="player may play remedy card onto battle pile" style="rounded=0;whiteSpace=wrap;html=1;fontColor=default;" parent="1" vertex="1">
          <mxGeometry x="870" y="980" width="120" height="60" as="geometry" />
        </mxCell>
        <mxCell id="EqiWw9plrwAncAhiOtz7-14" value="CONTINUE&lt;div&gt;PLAY&lt;/div&gt;" style="ellipse;whiteSpace=wrap;html=1;aspect=fixed;fontColor=default;" parent="1" vertex="1">
          <mxGeometry x="890" y="1090" width="80" height="80" as="geometry" />
        </mxCell>
        <mxCell id="EqiWw9plrwAncAhiOtz7-16" value="if value &amp;gt;= 25&lt;div&gt;(DISTANCE)&lt;/div&gt;" style="rhombus;whiteSpace=wrap;html=1;fontColor=default;" parent="1" vertex="1">
          <mxGeometry x="1280" y="490" width="180" height="80" as="geometry" />
        </mxCell>
        <mxCell id="EqiWw9plrwAncAhiOtz7-17" value="no" style="edgeStyle=orthogonalEdgeStyle;html=1;align=left;verticalAlign=bottom;endArrow=open;endSize=8;rounded=0;fontColor=default;" parent="1" source="EqiWw9plrwAncAhiOtz7-16" edge="1">
          <mxGeometry x="-1" relative="1" as="geometry">
            <mxPoint x="2560" y="530" as="targetPoint" />
          </mxGeometry>
        </mxCell>
        <mxCell id="EqiWw9plrwAncAhiOtz7-18" value="yes" style="edgeStyle=orthogonalEdgeStyle;html=1;align=left;verticalAlign=top;endArrow=open;endSize=8;rounded=0;fontColor=default;" parent="1" source="EqiWw9plrwAncAhiOtz7-16" edge="1">
          <mxGeometry x="-1" relative="1" as="geometry">
            <mxPoint x="1370" y="670" as="targetPoint" />
          </mxGeometry>
        </mxCell>
        <mxCell id="GtyLG8qUAobi4xFikSvP-1" style="edgeStyle=orthogonalEdgeStyle;rounded=0;orthogonalLoop=1;jettySize=auto;html=1;entryX=0;entryY=0.5;entryDx=0;entryDy=0;fontColor=default;" parent="1" source="ph7asP7YNFt0ys2VyMSe-1" target="O63LzF517BHGhvJjNGDs-4" edge="1">
          <mxGeometry relative="1" as="geometry">
            <mxPoint x="2120" y="700" as="targetPoint" />
          </mxGeometry>
        </mxCell>
        <mxCell id="GtyLG8qUAobi4xFikSvP-2" value="no" style="edgeLabel;html=1;align=center;verticalAlign=middle;resizable=0;points=[];fontColor=default;" parent="GtyLG8qUAobi4xFikSvP-1" vertex="1" connectable="0">
          <mxGeometry x="-0.2361" y="-1" relative="1" as="geometry">
            <mxPoint as="offset" />
          </mxGeometry>
        </mxCell>
        <mxCell id="ph7asP7YNFt0ys2VyMSe-1" value="does player have a speed limit on top of their speed pile?" style="rhombus;whiteSpace=wrap;html=1;fontColor=default;" parent="1" vertex="1">
          <mxGeometry x="1850" y="650" width="160" height="80" as="geometry" />
        </mxCell>
        <mxCell id="ph7asP7YNFt0ys2VyMSe-2" value="" style="edgeStyle=orthogonalEdgeStyle;html=1;align=left;verticalAlign=bottom;endArrow=open;endSize=8;rounded=0;fontColor=default;" parent="1" source="ph7asP7YNFt0ys2VyMSe-1" edge="1">
          <mxGeometry x="-1" relative="1" as="geometry">
            <mxPoint x="1930" y="820" as="targetPoint" />
          </mxGeometry>
        </mxCell>
        <mxCell id="ph7asP7YNFt0ys2VyMSe-12" value="yes" style="edgeLabel;html=1;align=center;verticalAlign=middle;resizable=0;points=[];fontColor=default;" parent="ph7asP7YNFt0ys2VyMSe-2" vertex="1" connectable="0">
          <mxGeometry x="-0.6404" y="3" relative="1" as="geometry">
            <mxPoint as="offset" />
          </mxGeometry>
        </mxCell>
        <mxCell id="ph7asP7YNFt0ys2VyMSe-5" value="does player have a right of way safety card on their safety pile?" style="rhombus;whiteSpace=wrap;html=1;fontColor=default;" parent="1" vertex="1">
          <mxGeometry x="1290" y="650" width="160" height="80" as="geometry" />
        </mxCell>
        <mxCell id="ph7asP7YNFt0ys2VyMSe-6" value="no" style="edgeStyle=orthogonalEdgeStyle;html=1;align=left;verticalAlign=bottom;endArrow=open;endSize=8;rounded=0;fontColor=default;" parent="1" source="ph7asP7YNFt0ys2VyMSe-5" edge="1">
          <mxGeometry x="-1" relative="1" as="geometry">
            <mxPoint x="1620" y="690" as="targetPoint" />
          </mxGeometry>
        </mxCell>
        <mxCell id="ph7asP7YNFt0ys2VyMSe-7" value="yes" style="edgeStyle=orthogonalEdgeStyle;html=1;align=left;verticalAlign=top;endArrow=open;endSize=8;rounded=0;fontColor=default;" parent="1" source="ph7asP7YNFt0ys2VyMSe-5" edge="1">
          <mxGeometry x="-1" relative="1" as="geometry">
            <mxPoint x="1370" y="830" as="targetPoint" />
          </mxGeometry>
        </mxCell>
        <mxCell id="ph7asP7YNFt0ys2VyMSe-10" style="edgeStyle=orthogonalEdgeStyle;rounded=0;orthogonalLoop=1;jettySize=auto;html=1;fontColor=default;" parent="1" source="ph7asP7YNFt0ys2VyMSe-8" edge="1">
          <mxGeometry relative="1" as="geometry">
            <mxPoint x="1370" y="1100" as="targetPoint" />
          </mxGeometry>
        </mxCell>
        <mxCell id="ph7asP7YNFt0ys2VyMSe-8" value="player may play distance card&amp;nbsp;" style="rounded=0;whiteSpace=wrap;html=1;fontColor=default;" parent="1" vertex="1">
          <mxGeometry x="1310" y="980" width="120" height="60" as="geometry" />
        </mxCell>
        <mxCell id="ph7asP7YNFt0ys2VyMSe-11" value="CONTINUE&lt;div&gt;PLAY&lt;/div&gt;" style="strokeWidth=2;html=1;shape=mxgraph.flowchart.start_2;whiteSpace=wrap;fontColor=default;" parent="1" vertex="1">
          <mxGeometry x="1330" y="1100" width="80" height="80" as="geometry" />
        </mxCell>
        <mxCell id="ph7asP7YNFt0ys2VyMSe-23" style="edgeStyle=orthogonalEdgeStyle;rounded=0;orthogonalLoop=1;jettySize=auto;html=1;fontColor=default;" parent="1" source="ph7asP7YNFt0ys2VyMSe-15" target="ph7asP7YNFt0ys2VyMSe-22" edge="1">
          <mxGeometry relative="1" as="geometry" />
        </mxCell>
        <mxCell id="ph7asP7YNFt0ys2VyMSe-15" value="player may play distance card" style="rounded=0;whiteSpace=wrap;html=1;fontColor=default;" parent="1" vertex="1">
          <mxGeometry x="2330" y="660" width="120" height="60" as="geometry" />
        </mxCell>
        <mxCell id="ph7asP7YNFt0ys2VyMSe-20" style="edgeStyle=orthogonalEdgeStyle;rounded=0;orthogonalLoop=1;jettySize=auto;html=1;fontColor=default;" parent="1" source="ph7asP7YNFt0ys2VyMSe-18" edge="1">
          <mxGeometry relative="1" as="geometry">
            <mxPoint x="1930" y="1010" as="targetPoint" />
          </mxGeometry>
        </mxCell>
        <mxCell id="ph7asP7YNFt0ys2VyMSe-21" value="yes" style="edgeLabel;html=1;align=center;verticalAlign=middle;resizable=0;points=[];fontColor=default;" parent="ph7asP7YNFt0ys2VyMSe-20" vertex="1" connectable="0">
          <mxGeometry x="-0.14" y="2" relative="1" as="geometry">
            <mxPoint as="offset" />
          </mxGeometry>
        </mxCell>
        <mxCell id="ph7asP7YNFt0ys2VyMSe-25" style="edgeStyle=orthogonalEdgeStyle;rounded=0;orthogonalLoop=1;jettySize=auto;html=1;fontColor=default;" parent="1" source="ph7asP7YNFt0ys2VyMSe-18" target="ph7asP7YNFt0ys2VyMSe-24" edge="1">
          <mxGeometry relative="1" as="geometry" />
        </mxCell>
        <mxCell id="INTIFjIG8oSuPAFCuMPB-22" value="no" style="edgeLabel;html=1;align=center;verticalAlign=middle;resizable=0;points=[];fontColor=default;" parent="ph7asP7YNFt0ys2VyMSe-25" vertex="1" connectable="0">
          <mxGeometry x="-0.1458" y="-1" relative="1" as="geometry">
            <mxPoint as="offset" />
          </mxGeometry>
        </mxCell>
        <mxCell id="ph7asP7YNFt0ys2VyMSe-18" value="is player card choice less than or equal to speed limit displayed on players speed pile?" style="strokeWidth=2;html=1;shape=mxgraph.flowchart.decision;whiteSpace=wrap;fontColor=default;" parent="1" vertex="1">
          <mxGeometry x="1830" y="810" width="200" height="120" as="geometry" />
        </mxCell>
        <mxCell id="ph7asP7YNFt0ys2VyMSe-28" style="edgeStyle=orthogonalEdgeStyle;rounded=0;orthogonalLoop=1;jettySize=auto;html=1;fontColor=default;" parent="1" source="ph7asP7YNFt0ys2VyMSe-19" target="ph7asP7YNFt0ys2VyMSe-27" edge="1">
          <mxGeometry relative="1" as="geometry" />
        </mxCell>
        <mxCell id="ph7asP7YNFt0ys2VyMSe-19" value="player may play distance card" style="rounded=0;whiteSpace=wrap;html=1;fontColor=default;" parent="1" vertex="1">
          <mxGeometry x="1870" y="1160" width="120" height="60" as="geometry" />
        </mxCell>
        <mxCell id="ph7asP7YNFt0ys2VyMSe-22" value="CONTINUE PLAY" style="strokeWidth=2;html=1;shape=mxgraph.flowchart.start_2;whiteSpace=wrap;fontColor=default;" parent="1" vertex="1">
          <mxGeometry x="2530" y="650" width="90" height="80" as="geometry" />
        </mxCell>
        <mxCell id="ph7asP7YNFt0ys2VyMSe-26" style="edgeStyle=orthogonalEdgeStyle;rounded=0;orthogonalLoop=1;jettySize=auto;html=1;fontColor=default;" parent="1" source="ph7asP7YNFt0ys2VyMSe-24" edge="1">
          <mxGeometry relative="1" as="geometry">
            <mxPoint x="1170" y="1420" as="targetPoint" />
            <Array as="points">
              <mxPoint x="2340" y="870" />
              <mxPoint x="2340" y="1420" />
            </Array>
          </mxGeometry>
        </mxCell>
        <mxCell id="ph7asP7YNFt0ys2VyMSe-24" value="move invalid" style="rounded=0;whiteSpace=wrap;html=1;fontColor=default;" parent="1" vertex="1">
          <mxGeometry x="2125" y="840" width="120" height="60" as="geometry" />
        </mxCell>
        <mxCell id="ph7asP7YNFt0ys2VyMSe-27" value="CONTINUE&lt;div&gt;PLAY&lt;/div&gt;" style="ellipse;whiteSpace=wrap;html=1;aspect=fixed;fontColor=default;" parent="1" vertex="1">
          <mxGeometry x="1890" y="1280" width="80" height="80" as="geometry" />
        </mxCell>
        <mxCell id="ph7asP7YNFt0ys2VyMSe-31" style="edgeStyle=orthogonalEdgeStyle;rounded=0;orthogonalLoop=1;jettySize=auto;html=1;entryX=0.5;entryY=0;entryDx=0;entryDy=0;fontColor=default;" parent="1" source="ph7asP7YNFt0ys2VyMSe-29" target="j_MPITyio3KFGZgEdN_8-10" edge="1">
          <mxGeometry relative="1" as="geometry" />
        </mxCell>
        <mxCell id="ph7asP7YNFt0ys2VyMSe-29" value="player draws card from deck" style="rounded=0;whiteSpace=wrap;html=1;fontColor=default;" parent="1" vertex="1">
          <mxGeometry x="196" y="220" width="120" height="60" as="geometry" />
        </mxCell>
        <mxCell id="ph7asP7YNFt0ys2VyMSe-32" value="does player have a roll card on top of their battle pile?" style="rhombus;whiteSpace=wrap;html=1;fontColor=default;" parent="1" vertex="1">
          <mxGeometry x="1540" y="650" width="200" height="80" as="geometry" />
        </mxCell>
        <mxCell id="ph7asP7YNFt0ys2VyMSe-33" value="yes" style="edgeStyle=orthogonalEdgeStyle;html=1;align=left;verticalAlign=bottom;endArrow=open;endSize=8;rounded=0;fontColor=default;" parent="1" source="ph7asP7YNFt0ys2VyMSe-32" target="ph7asP7YNFt0ys2VyMSe-1" edge="1">
          <mxGeometry x="-0.2727" relative="1" as="geometry">
            <mxPoint x="1780" y="690" as="targetPoint" />
            <mxPoint as="offset" />
          </mxGeometry>
        </mxCell>
        <mxCell id="ph7asP7YNFt0ys2VyMSe-34" value="no" style="edgeStyle=orthogonalEdgeStyle;html=1;align=left;verticalAlign=top;endArrow=open;endSize=8;rounded=0;fontColor=default;" parent="1" source="ph7asP7YNFt0ys2VyMSe-32" target="ph7asP7YNFt0ys2VyMSe-35" edge="1">
          <mxGeometry x="-1" relative="1" as="geometry">
            <mxPoint x="1640" y="770" as="targetPoint" />
          </mxGeometry>
        </mxCell>
        <mxCell id="ph7asP7YNFt0ys2VyMSe-36" style="edgeStyle=orthogonalEdgeStyle;rounded=0;orthogonalLoop=1;jettySize=auto;html=1;fontColor=default;" parent="1" source="ph7asP7YNFt0ys2VyMSe-35" edge="1">
          <mxGeometry relative="1" as="geometry">
            <mxPoint x="1640" y="1420" as="targetPoint" />
            <Array as="points">
              <mxPoint x="1640" y="1360" />
              <mxPoint x="1640" y="1360" />
            </Array>
          </mxGeometry>
        </mxCell>
        <mxCell id="ph7asP7YNFt0ys2VyMSe-35" value="move invalid" style="rounded=0;whiteSpace=wrap;html=1;fontColor=default;" parent="1" vertex="1">
          <mxGeometry x="1580" y="920" width="120" height="60" as="geometry" />
        </mxCell>
        <mxCell id="uyiDd5FtRlVptxsZc7XS-1" value="does target have a safety card played that corresponds to hazard card?" style="rhombus;whiteSpace=wrap;html=1;fontColor=default;" parent="1" vertex="1">
          <mxGeometry x="170" y="930" width="168" height="80" as="geometry" />
        </mxCell>
        <mxCell id="uyiDd5FtRlVptxsZc7XS-2" value="yes" style="edgeStyle=orthogonalEdgeStyle;html=1;align=left;verticalAlign=bottom;endArrow=open;endSize=8;rounded=0;entryX=0;entryY=0.5;entryDx=0;entryDy=0;fontColor=default;" parent="1" source="uyiDd5FtRlVptxsZc7XS-1" target="uyiDd5FtRlVptxsZc7XS-4" edge="1">
          <mxGeometry x="-0.4681" relative="1" as="geometry">
            <mxPoint x="410" y="970" as="targetPoint" />
            <mxPoint as="offset" />
          </mxGeometry>
        </mxCell>
        <mxCell id="uyiDd5FtRlVptxsZc7XS-3" value="no" style="edgeStyle=orthogonalEdgeStyle;html=1;align=left;verticalAlign=top;endArrow=open;endSize=8;rounded=0;fontColor=default;" parent="1" source="uyiDd5FtRlVptxsZc7XS-1" edge="1">
          <mxGeometry x="-1" relative="1" as="geometry">
            <mxPoint x="254" y="1080" as="targetPoint" />
          </mxGeometry>
        </mxCell>
        <mxCell id="uyiDd5FtRlVptxsZc7XS-4" value="move invalid" style="rounded=0;whiteSpace=wrap;html=1;fontColor=default;" parent="1" vertex="1">
          <mxGeometry x="420.72" y="940" width="120" height="60" as="geometry" />
        </mxCell>
        <mxCell id="O63LzF517BHGhvJjNGDs-1" value="is total distance of mileage less than or equal to 1000 miles?&amp;nbsp;" style="rhombus;whiteSpace=wrap;html=1;fontColor=default;" parent="1" vertex="1">
          <mxGeometry x="1300" y="830" width="140" height="80" as="geometry" />
        </mxCell>
        <mxCell id="O63LzF517BHGhvJjNGDs-2" value="no" style="edgeStyle=orthogonalEdgeStyle;html=1;align=left;verticalAlign=bottom;endArrow=open;endSize=8;rounded=0;fontColor=default;" parent="1" source="O63LzF517BHGhvJjNGDs-1" target="ph7asP7YNFt0ys2VyMSe-35" edge="1">
          <mxGeometry x="-1" relative="1" as="geometry">
            <mxPoint x="1510" y="870" as="targetPoint" />
          </mxGeometry>
        </mxCell>
        <mxCell id="O63LzF517BHGhvJjNGDs-3" value="yes" style="edgeStyle=orthogonalEdgeStyle;html=1;align=left;verticalAlign=top;endArrow=open;endSize=8;rounded=0;fontColor=default;" parent="1" source="O63LzF517BHGhvJjNGDs-1" edge="1">
          <mxGeometry x="-1" relative="1" as="geometry">
            <mxPoint x="1370" y="980" as="targetPoint" />
          </mxGeometry>
        </mxCell>
        <mxCell id="O63LzF517BHGhvJjNGDs-5" style="edgeStyle=orthogonalEdgeStyle;rounded=0;orthogonalLoop=1;jettySize=auto;html=1;fontColor=default;" parent="1" source="O63LzF517BHGhvJjNGDs-4" target="ph7asP7YNFt0ys2VyMSe-24" edge="1">
          <mxGeometry relative="1" as="geometry" />
        </mxCell>
        <mxCell id="O63LzF517BHGhvJjNGDs-7" value="no" style="edgeLabel;html=1;align=center;verticalAlign=middle;resizable=0;points=[];fontColor=default;" parent="O63LzF517BHGhvJjNGDs-5" vertex="1" connectable="0">
          <mxGeometry x="-0.4" y="5" relative="1" as="geometry">
            <mxPoint as="offset" />
          </mxGeometry>
        </mxCell>
        <mxCell id="O63LzF517BHGhvJjNGDs-6" style="edgeStyle=orthogonalEdgeStyle;rounded=0;orthogonalLoop=1;jettySize=auto;html=1;fontColor=default;" parent="1" source="O63LzF517BHGhvJjNGDs-4" target="ph7asP7YNFt0ys2VyMSe-15" edge="1">
          <mxGeometry relative="1" as="geometry" />
        </mxCell>
        <mxCell id="O63LzF517BHGhvJjNGDs-8" value="yes" style="edgeLabel;html=1;align=center;verticalAlign=middle;resizable=0;points=[];fontColor=default;" parent="O63LzF517BHGhvJjNGDs-6" vertex="1" connectable="0">
          <mxGeometry x="-0.0793" y="2" relative="1" as="geometry">
            <mxPoint as="offset" />
          </mxGeometry>
        </mxCell>
        <mxCell id="O63LzF517BHGhvJjNGDs-4" value="is total distance of mileage less than or equal to 1000 miles?&amp;nbsp;" style="rhombus;whiteSpace=wrap;html=1;fontColor=default;" parent="1" vertex="1">
          <mxGeometry x="2115" y="650" width="140" height="80" as="geometry" />
        </mxCell>
        <mxCell id="O63LzF517BHGhvJjNGDs-10" style="edgeStyle=orthogonalEdgeStyle;rounded=0;orthogonalLoop=1;jettySize=auto;html=1;fontColor=default;" parent="1" source="O63LzF517BHGhvJjNGDs-9" target="ph7asP7YNFt0ys2VyMSe-24" edge="1">
          <mxGeometry relative="1" as="geometry" />
        </mxCell>
        <mxCell id="O63LzF517BHGhvJjNGDs-13" value="no" style="edgeLabel;html=1;align=center;verticalAlign=middle;resizable=0;points=[];fontColor=default;" parent="O63LzF517BHGhvJjNGDs-10" vertex="1" connectable="0">
          <mxGeometry x="-0.572" y="-1" relative="1" as="geometry">
            <mxPoint as="offset" />
          </mxGeometry>
        </mxCell>
        <mxCell id="O63LzF517BHGhvJjNGDs-11" style="edgeStyle=orthogonalEdgeStyle;rounded=0;orthogonalLoop=1;jettySize=auto;html=1;fontColor=default;" parent="1" source="O63LzF517BHGhvJjNGDs-9" target="ph7asP7YNFt0ys2VyMSe-19" edge="1">
          <mxGeometry relative="1" as="geometry" />
        </mxCell>
        <mxCell id="O63LzF517BHGhvJjNGDs-12" value="yes" style="edgeLabel;html=1;align=center;verticalAlign=middle;resizable=0;points=[];fontColor=default;" parent="O63LzF517BHGhvJjNGDs-11" vertex="1" connectable="0">
          <mxGeometry x="-0.3342" relative="1" as="geometry">
            <mxPoint as="offset" />
          </mxGeometry>
        </mxCell>
        <mxCell id="O63LzF517BHGhvJjNGDs-9" value="is total distance of mileage less than or equal to 1000 miles?&amp;nbsp;" style="rhombus;whiteSpace=wrap;html=1;fontColor=default;" parent="1" vertex="1">
          <mxGeometry x="1860" y="1010" width="140" height="80" as="geometry" />
        </mxCell>
      </root>
    </mxGraphModel>
  </diagram>
</mxfile>
